STARTFONT 2.1
COMMENT 
COMMENT This file has been produced by ttf2bdf written by Subhabrata Biswas
COMMENT 
COMMENT For comments, questions, bug reports, send a mail to
COMMENT                                           subhabrata.biswas@usa.net
COMMENT 
FONT -*-Calibri-Bold-R-Normal--43-320-96-96-c-23--fontspecific
SIZE 32 96 96
FONTBOUNDINGBOX 77 53 -22 -15
STARTPROPERTIES 15
FOUNDRY "Misc"
FAMILY_NAME "Calibri"
WEIGHT_NAME "Bold"
SLANT "R"
SETWIDTH_NAME "Normal"
PIXEL_SIZE 21
POINT_SIZE 320
RESOLUTION_X 96
RESOLUTION_Y 96
SPACING "C"
CHARSET_ENCODING "fontspecific"
FONT_ASCENT 41
FONT_DESCENT 12
DEFAULT_CHAR 1
COPYRIGHT "You may wish to put your copyright here"
ENDPROPERTIES
CHARS 255
STARTCHAR C0001
ENCODING 1
SWIDTH 515 0
DWIDTH 22 0
BBX 21 27 1 0
BITMAP
FFFFF8
FFFFF8
FFFFF8
E00038
E00038
E3F838
E7FC38
E7FE38
E41F38
E00F38
E00F38
E00F38
E01E38
E1FC38
E1F838
E1C038
E1C038
E00038
E1E038
E1E038
E1E038
E1E038
E00038
E00038
FFFFF8
FFFFF8
FFFFF8
ENDCHAR
STARTCHAR C0002
ENCODING 2
SWIDTH 515 0
DWIDTH 22 0
BBX 21 27 1 0
BITMAP
FFFFF8
FFFFF8
FFFFF8
E00038
E00038
E3F838
E7FC38
E7FE38
E41F38
E00F38
E00F38
E00F38
E01E38
E1FC38
E1F838
E1C038
E1C038
E00038
E1E038
E1E038
E1E038
E1E038
E00038
E00038
FFFFF8
FFFFF8
FFFFF8
ENDCHAR
STARTCHAR C0003
ENCODING 3
SWIDTH 515 0
DWIDTH 22 0
BBX 21 27 1 0
BITMAP
FFFFF8
FFFFF8
FFFFF8
E00038
E00038
E3F838
E7FC38
E7FE38
E41F38
E00F38
E00F38
E00F38
E01E38
E1FC38
E1F838
E1C038
E1C038
E00038
E1E038
E1E038
E1E038
E1E038
E00038
E00038
FFFFF8
FFFFF8
FFFFF8
ENDCHAR
STARTCHAR C0004
ENCODING 4
SWIDTH 515 0
DWIDTH 22 0
BBX 21 27 1 0
BITMAP
FFFFF8
FFFFF8
FFFFF8
E00038
E00038
E3F838
E7FC38
E7FE38
E41F38
E00F38
E00F38
E00F38
E01E38
E1FC38
E1F838
E1C038
E1C038
E00038
E1E038
E1E038
E1E038
E1E038
E00038
E00038
FFFFF8
FFFFF8
FFFFF8
ENDCHAR
STARTCHAR C0005
ENCODING 5
SWIDTH 515 0
DWIDTH 22 0
BBX 21 27 1 0
BITMAP
FFFFF8
FFFFF8
FFFFF8
E00038
E00038
E3F838
E7FC38
E7FE38
E41F38
E00F38
E00F38
E00F38
E01E38
E1FC38
E1F838
E1C038
E1C038
E00038
E1E038
E1E038
E1E038
E1E038
E00038
E00038
FFFFF8
FFFFF8
FFFFF8
ENDCHAR
STARTCHAR C0006
ENCODING 6
SWIDTH 515 0
DWIDTH 22 0
BBX 21 27 1 0
BITMAP
FFFFF8
FFFFF8
FFFFF8
E00038
E00038
E3F838
E7FC38
E7FE38
E41F38
E00F38
E00F38
E00F38
E01E38
E1FC38
E1F838
E1C038
E1C038
E00038
E1E038
E1E038
E1E038
E1E038
E00038
E00038
FFFFF8
FFFFF8
FFFFF8
ENDCHAR
STARTCHAR C0007
ENCODING 7
SWIDTH 515 0
DWIDTH 22 0
BBX 21 27 1 0
BITMAP
FFFFF8
FFFFF8
FFFFF8
E00038
E00038
E3F838
E7FC38
E7FE38
E41F38
E00F38
E00F38
E00F38
E01E38
E1FC38
E1F838
E1C038
E1C038
E00038
E1E038
E1E038
E1E038
E1E038
E00038
E00038
FFFFF8
FFFFF8
FFFFF8
ENDCHAR
STARTCHAR C0008
ENCODING 8
SWIDTH 515 0
DWIDTH 22 0
BBX 21 27 1 0
BITMAP
FFFFF8
FFFFF8
FFFFF8
E00038
E00038
E3F838
E7FC38
E7FE38
E41F38
E00F38
E00F38
E00F38
E01E38
E1FC38
E1F838
E1C038
E1C038
E00038
E1E038
E1E038
E1E038
E1E038
E00038
E00038
FFFFF8
FFFFF8
FFFFF8
ENDCHAR
STARTCHAR C0009
ENCODING 9
SWIDTH 515 0
DWIDTH 22 0
BBX 21 27 1 0
BITMAP
FFFFF8
FFFFF8
FFFFF8
E00038
E00038
E3F838
E7FC38
E7FE38
E41F38
E00F38
E00F38
E00F38
E01E38
E1FC38
E1F838
E1C038
E1C038
E00038
E1E038
E1E038
E1E038
E1E038
E00038
E00038
FFFFF8
FFFFF8
FFFFF8
ENDCHAR
STARTCHAR C0010
ENCODING 10
SWIDTH 515 0
DWIDTH 22 0
BBX 21 27 1 0
BITMAP
FFFFF8
FFFFF8
FFFFF8
E00038
E00038
E3F838
E7FC38
E7FE38
E41F38
E00F38
E00F38
E00F38
E01E38
E1FC38
E1F838
E1C038
E1C038
E00038
E1E038
E1E038
E1E038
E1E038
E00038
E00038
FFFFF8
FFFFF8
FFFFF8
ENDCHAR
STARTCHAR C0011
ENCODING 11
SWIDTH 515 0
DWIDTH 22 0
BBX 21 27 1 0
BITMAP
FFFFF8
FFFFF8
FFFFF8
E00038
E00038
E3F838
E7FC38
E7FE38
E41F38
E00F38
E00F38
E00F38
E01E38
E1FC38
E1F838
E1C038
E1C038
E00038
E1E038
E1E038
E1E038
E1E038
E00038
E00038
FFFFF8
FFFFF8
FFFFF8
ENDCHAR
STARTCHAR C0012
ENCODING 12
SWIDTH 515 0
DWIDTH 22 0
BBX 21 27 1 0
BITMAP
FFFFF8
FFFFF8
FFFFF8
E00038
E00038
E3F838
E7FC38
E7FE38
E41F38
E00F38
E00F38
E00F38
E01E38
E1FC38
E1F838
E1C038
E1C038
E00038
E1E038
E1E038
E1E038
E1E038
E00038
E00038
FFFFF8
FFFFF8
FFFFF8
ENDCHAR
STARTCHAR C0013
ENCODING 13
SWIDTH 0 0
DWIDTH 0 0
BBX 1 1 0 -1
BITMAP
00
ENDCHAR
STARTCHAR C0014
ENCODING 14
SWIDTH 515 0
DWIDTH 22 0
BBX 21 27 1 0
BITMAP
FFFFF8
FFFFF8
FFFFF8
E00038
E00038
E3F838
E7FC38
E7FE38
E41F38
E00F38
E00F38
E00F38
E01E38
E1FC38
E1F838
E1C038
E1C038
E00038
E1E038
E1E038
E1E038
E1E038
E00038
E00038
FFFFF8
FFFFF8
FFFFF8
ENDCHAR
STARTCHAR C0015
ENCODING 15
SWIDTH 515 0
DWIDTH 22 0
BBX 21 27 1 0
BITMAP
FFFFF8
FFFFF8
FFFFF8
E00038
E00038
E3F838
E7FC38
E7FE38
E41F38
E00F38
E00F38
E00F38
E01E38
E1FC38
E1F838
E1C038
E1C038
E00038
E1E038
E1E038
E1E038
E1E038
E00038
E00038
FFFFF8
FFFFF8
FFFFF8
ENDCHAR
STARTCHAR C0016
ENCODING 16
SWIDTH 515 0
DWIDTH 22 0
BBX 21 27 1 0
BITMAP
FFFFF8
FFFFF8
FFFFF8
E00038
E00038
E3F838
E7FC38
E7FE38
E41F38
E00F38
E00F38
E00F38
E01E38
E1FC38
E1F838
E1C038
E1C038
E00038
E1E038
E1E038
E1E038
E1E038
E00038
E00038
FFFFF8
FFFFF8
FFFFF8
ENDCHAR
STARTCHAR C0017
ENCODING 17
SWIDTH 515 0
DWIDTH 22 0
BBX 21 27 1 0
BITMAP
FFFFF8
FFFFF8
FFFFF8
E00038
E00038
E3F838
E7FC38
E7FE38
E41F38
E00F38
E00F38
E00F38
E01E38
E1FC38
E1F838
E1C038
E1C038
E00038
E1E038
E1E038
E1E038
E1E038
E00038
E00038
FFFFF8
FFFFF8
FFFFF8
ENDCHAR
STARTCHAR C0018
ENCODING 18
SWIDTH 515 0
DWIDTH 22 0
BBX 21 27 1 0
BITMAP
FFFFF8
FFFFF8
FFFFF8
E00038
E00038
E3F838
E7FC38
E7FE38
E41F38
E00F38
E00F38
E00F38
E01E38
E1FC38
E1F838
E1C038
E1C038
E00038
E1E038
E1E038
E1E038
E1E038
E00038
E00038
FFFFF8
FFFFF8
FFFFF8
ENDCHAR
STARTCHAR C0019
ENCODING 19
SWIDTH 515 0
DWIDTH 22 0
BBX 21 27 1 0
BITMAP
FFFFF8
FFFFF8
FFFFF8
E00038
E00038
E3F838
E7FC38
E7FE38
E41F38
E00F38
E00F38
E00F38
E01E38
E1FC38
E1F838
E1C038
E1C038
E00038
E1E038
E1E038
E1E038
E1E038
E00038
E00038
FFFFF8
FFFFF8
FFFFF8
ENDCHAR
STARTCHAR C0020
ENCODING 20
SWIDTH 515 0
DWIDTH 22 0
BBX 21 27 1 0
BITMAP
FFFFF8
FFFFF8
FFFFF8
E00038
E00038
E3F838
E7FC38
E7FE38
E41F38
E00F38
E00F38
E00F38
E01E38
E1FC38
E1F838
E1C038
E1C038
E00038
E1E038
E1E038
E1E038
E1E038
E00038
E00038
FFFFF8
FFFFF8
FFFFF8
ENDCHAR
STARTCHAR C0021
ENCODING 21
SWIDTH 515 0
DWIDTH 22 0
BBX 21 27 1 0
BITMAP
FFFFF8
FFFFF8
FFFFF8
E00038
E00038
E3F838
E7FC38
E7FE38
E41F38
E00F38
E00F38
E00F38
E01E38
E1FC38
E1F838
E1C038
E1C038
E00038
E1E038
E1E038
E1E038
E1E038
E00038
E00038
FFFFF8
FFFFF8
FFFFF8
ENDCHAR
STARTCHAR C0022
ENCODING 22
SWIDTH 515 0
DWIDTH 22 0
BBX 21 27 1 0
BITMAP
FFFFF8
FFFFF8
FFFFF8
E00038
E00038
E3F838
E7FC38
E7FE38
E41F38
E00F38
E00F38
E00F38
E01E38
E1FC38
E1F838
E1C038
E1C038
E00038
E1E038
E1E038
E1E038
E1E038
E00038
E00038
FFFFF8
FFFFF8
FFFFF8
ENDCHAR
STARTCHAR C0023
ENCODING 23
SWIDTH 515 0
DWIDTH 22 0
BBX 21 27 1 0
BITMAP
FFFFF8
FFFFF8
FFFFF8
E00038
E00038
E3F838
E7FC38
E7FE38
E41F38
E00F38
E00F38
E00F38
E01E38
E1FC38
E1F838
E1C038
E1C038
E00038
E1E038
E1E038
E1E038
E1E038
E00038
E00038
FFFFF8
FFFFF8
FFFFF8
ENDCHAR
STARTCHAR C0024
ENCODING 24
SWIDTH 515 0
DWIDTH 22 0
BBX 21 27 1 0
BITMAP
FFFFF8
FFFFF8
FFFFF8
E00038
E00038
E3F838
E7FC38
E7FE38
E41F38
E00F38
E00F38
E00F38
E01E38
E1FC38
E1F838
E1C038
E1C038
E00038
E1E038
E1E038
E1E038
E1E038
E00038
E00038
FFFFF8
FFFFF8
FFFFF8
ENDCHAR
STARTCHAR C0025
ENCODING 25
SWIDTH 515 0
DWIDTH 22 0
BBX 21 27 1 0
BITMAP
FFFFF8
FFFFF8
FFFFF8
E00038
E00038
E3F838
E7FC38
E7FE38
E41F38
E00F38
E00F38
E00F38
E01E38
E1FC38
E1F838
E1C038
E1C038
E00038
E1E038
E1E038
E1E038
E1E038
E00038
E00038
FFFFF8
FFFFF8
FFFFF8
ENDCHAR
STARTCHAR C0026
ENCODING 26
SWIDTH 515 0
DWIDTH 22 0
BBX 21 27 1 0
BITMAP
FFFFF8
FFFFF8
FFFFF8
E00038
E00038
E3F838
E7FC38
E7FE38
E41F38
E00F38
E00F38
E00F38
E01E38
E1FC38
E1F838
E1C038
E1C038
E00038
E1E038
E1E038
E1E038
E1E038
E00038
E00038
FFFFF8
FFFFF8
FFFFF8
ENDCHAR
STARTCHAR C0027
ENCODING 27
SWIDTH 515 0
DWIDTH 22 0
BBX 21 27 1 0
BITMAP
FFFFF8
FFFFF8
FFFFF8
E00038
E00038
E3F838
E7FC38
E7FE38
E41F38
E00F38
E00F38
E00F38
E01E38
E1FC38
E1F838
E1C038
E1C038
E00038
E1E038
E1E038
E1E038
E1E038
E00038
E00038
FFFFF8
FFFFF8
FFFFF8
ENDCHAR
STARTCHAR C0028
ENCODING 28
SWIDTH 515 0
DWIDTH 22 0
BBX 21 27 1 0
BITMAP
FFFFF8
FFFFF8
FFFFF8
E00038
E00038
E3F838
E7FC38
E7FE38
E41F38
E00F38
E00F38
E00F38
E01E38
E1FC38
E1F838
E1C038
E1C038
E00038
E1E038
E1E038
E1E038
E1E038
E00038
E00038
FFFFF8
FFFFF8
FFFFF8
ENDCHAR
STARTCHAR C0029
ENCODING 29
SWIDTH 515 0
DWIDTH 22 0
BBX 21 27 1 0
BITMAP
FFFFF8
FFFFF8
FFFFF8
E00038
E00038
E3F838
E7FC38
E7FE38
E41F38
E00F38
E00F38
E00F38
E01E38
E1FC38
E1F838
E1C038
E1C038
E00038
E1E038
E1E038
E1E038
E1E038
E00038
E00038
FFFFF8
FFFFF8
FFFFF8
ENDCHAR
STARTCHAR C0030
ENCODING 30
SWIDTH 515 0
DWIDTH 22 0
BBX 21 27 1 0
BITMAP
FFFFF8
FFFFF8
FFFFF8
E00038
E00038
E3F838
E7FC38
E7FE38
E41F38
E00F38
E00F38
E00F38
E01E38
E1FC38
E1F838
E1C038
E1C038
E00038
E1E038
E1E038
E1E038
E1E038
E00038
E00038
FFFFF8
FFFFF8
FFFFF8
ENDCHAR
STARTCHAR C0031
ENCODING 31
SWIDTH 515 0
DWIDTH 22 0
BBX 21 27 1 0
BITMAP
FFFFF8
FFFFF8
FFFFF8
E00038
E00038
E3F838
E7FC38
E7FE38
E41F38
E00F38
E00F38
E00F38
E01E38
E1FC38
E1F838
E1C038
E1C038
E00038
E1E038
E1E038
E1E038
E1E038
E00038
E00038
FFFFF8
FFFFF8
FFFFF8
ENDCHAR
STARTCHAR C0032- 
ENCODING 32
SWIDTH 234 0
DWIDTH 10 0
BBX 1 1 0 -1
BITMAP
00
ENDCHAR
STARTCHAR C0033-!
ENCODING 33
SWIDTH 328 0
DWIDTH 14 0
BBX 6 29 5 0
BITMAP
F8
F8
F8
F8
F8
F8
F8
F8
F8
F8
F8
F8
F8
F8
F8
F8
F8
F8
F8
F8
70
00
00
78
FC
FC
FC
FC
78
ENDCHAR
STARTCHAR C0034-"
ENCODING 34
SWIDTH 445 0
DWIDTH 19 0
BBX 13 11 2 18
BITMAP
F8F8
F8F8
F8F8
F8F8
F8F8
F8F8
F8F8
F8F8
F8F8
F8F8
7070
ENDCHAR
STARTCHAR C0035-#
ENCODING 35
SWIDTH 492 0
DWIDTH 21 0
BBX 20 27 1 0
BITMAP
0783C0
0783C0
0783C0
0783C0
0F0380
0F0780
7FFFF0
7FFFF0
7FFFF0
7FFFF0
0F0780
0F0780
0F0780
1E0F00
1E0F00
1E0F00
FFFFE0
FFFFE0
FFFFE0
FFFFE0
1E0F00
1E0F00
3C1E00
3C1E00
3C1E00
3C1E00
3C1E00
ENDCHAR
STARTCHAR C0036-$
ENCODING 36
SWIDTH 515 0
DWIDTH 22 0
BBX 18 37 2 -5
BITMAP
00F000
00F000
00F000
00F000
00F000
07F800
1FFE00
3FFF00
7FFF00
7C0F00
F80300
F80000
F80000
FC0000
FE0000
7F8000
7FF000
3FFC00
1FFF00
07FF80
00FF80
001FC0
000FC0
0007C0
0007C0
0007C0
C00FC0
F01F80
FFFF80
FFFF00
7FFC00
1FF000
078000
078000
078000
078000
078000
ENDCHAR
STARTCHAR C0037-%
ENCODING 37
SWIDTH 726 0
DWIDTH 31 0
BBX 30 29 1 -1
BITMAP
0FC003C0
3FE003C0
7FF00780
78F80F00
F0781F00
F0781E00
F0783C00
F0787C00
F0787800
F078F000
F8F1E000
7FF3E000
3FE3C000
1F878000
000F87E0
000F1FF0
001E3FF8
003E3C7C
003C783C
0078783C
00F0783C
01F0783C
01E0783C
03C0783C
07C07C78
07803FF8
0F001FF0
1E000FC0
1E000000
ENDCHAR
STARTCHAR C0038-&
ENCODING 38
SWIDTH 703 0
DWIDTH 30 0
BBX 27 28 2 0
BITMAP
00FF0000
03FFC000
07FFE000
0FFFF000
1F83F000
1F01F000
1F01F000
1F01F000
1F83E000
0F8FE000
0FFFC000
07FF8000
03FE0000
07F80F80
1FFC0F80
3FFE0F80
7F7F0F80
7C3F9F80
F81FDF00
F80FFF00
F807FF00
F803FE00
FC01FF00
7F07FF80
7FFFFFE0
3FFFEFE0
0FFF87E0
03FE01E0
ENDCHAR
STARTCHAR C0039-'
ENCODING 39
SWIDTH 234 0
DWIDTH 10 0
BBX 5 11 3 18
BITMAP
F8
F8
F8
F8
F8
F8
F8
F8
F8
F8
70
ENDCHAR
STARTCHAR C0040-(
ENCODING 40
SWIDTH 304 0
DWIDTH 13 0
BBX 9 37 2 -7
BITMAP
0F80
0F80
1F00
1F00
3F00
3E00
3E00
7E00
7C00
7C00
7C00
7C00
F800
F800
F800
F800
F800
F800
F800
F800
F800
F800
F800
F800
F800
7C00
7C00
7C00
7C00
7E00
3E00
3E00
3F00
1F00
1F00
0F80
0F80
ENDCHAR
STARTCHAR C0041-)
ENCODING 41
SWIDTH 304 0
DWIDTH 13 0
BBX 9 37 2 -7
BITMAP
F800
F800
7C00
7C00
7E00
3E00
3E00
3F00
1F00
1F00
1F00
1F00
0F80
0F80
0F80
0F80
0F80
0F80
0F80
0F80
0F80
0F80
0F80
0F80
0F80
1F00
1F00
1F00
1F00
3F00
3E00
3E00
7E00
7C00
7C00
F800
F800
ENDCHAR
STARTCHAR C0042-*
ENCODING 42
SWIDTH 492 0
DWIDTH 21 0
BBX 14 17 4 13
BITMAP
0780
0780
0780
6798
F33C
FB7C
FFFC
3FF0
0780
3FF0
FFFC
FB7C
F33C
6798
0780
0780
0780
ENDCHAR
STARTCHAR C0043-+
ENCODING 43
SWIDTH 492 0
DWIDTH 21 0
BBX 19 20 2 2
BITMAP
01F000
01F000
01F000
01F000
01F000
01F000
01F000
01F000
FFFFE0
FFFFE0
FFFFE0
FFFFE0
01F000
01F000
01F000
01F000
01F000
01F000
01F000
01F000
ENDCHAR
STARTCHAR C0044-,
ENCODING 44
SWIDTH 257 0
DWIDTH 11 0
BBX 8 12 0 -6
BITMAP
1F
1F
1F
1F
1F
1E
3E
3C
7C
78
F0
F0
ENDCHAR
STARTCHAR C0045--
ENCODING 45
SWIDTH 304 0
DWIDTH 13 0
BBX 11 4 1 8
BITMAP
FFE0
FFE0
FFE0
FFE0
ENDCHAR
STARTCHAR C0046-.
ENCODING 46
SWIDTH 257 0
DWIDTH 11 0
BBX 6 6 3 0
BITMAP
F8
FC
FC
FC
FC
F8
ENDCHAR
STARTCHAR C0047-/
ENCODING 47
SWIDTH 421 0
DWIDTH 18 0
BBX 18 37 0 -6
BITMAP
0007C0
0007C0
000FC0
000F80
000F80
001F00
001F00
001F00
003E00
003E00
007E00
007C00
007C00
00F800
00F800
00F800
01F000
01F000
03F000
03E000
03E000
07C000
07C000
07C000
0F8000
0F8000
1F8000
1F0000
1F0000
3E0000
3E0000
3E0000
7C0000
7C0000
FC0000
F80000
F80000
ENDCHAR
STARTCHAR C0048-0
ENCODING 48
SWIDTH 515 0
DWIDTH 22 0
BBX 19 27 1 0
BITMAP
03F800
0FFE00
1FFF00
3FFF80
3E0FC0
7C07C0
7C07C0
7C07E0
F803E0
F803E0
F803E0
F803E0
F803E0
F803E0
F803E0
F803E0
F803E0
F803E0
F803E0
FC07C0
7C07C0
7C07C0
7E0F80
3FFF80
1FFF00
0FFE00
03F800
ENDCHAR
STARTCHAR C0049-1
ENCODING 49
SWIDTH 515 0
DWIDTH 22 0
BBX 16 27 3 0
BITMAP
03E0
0FE0
1FE0
7FE0
FFE0
FBE0
E3E0
03E0
03E0
03E0
03E0
03E0
03E0
03E0
03E0
03E0
03E0
03E0
03E0
03E0
03E0
03E0
03E0
FFFF
FFFF
FFFF
FFFF
ENDCHAR
STARTCHAR C0050-2
ENCODING 50
SWIDTH 515 0
DWIDTH 22 0
BBX 18 27 2 0
BITMAP
07F000
1FFC00
7FFF00
7FFF00
707F80
607F80
003F80
003F80
003F80
003F80
003F80
007F00
007F00
00FE00
01FC00
03FC00
07F800
07F000
0FE000
1FC000
3F8000
7F0000
7E0000
FFFFC0
FFFFC0
FFFFC0
FFFFC0
ENDCHAR
STARTCHAR C0051-3
ENCODING 51
SWIDTH 515 0
DWIDTH 22 0
BBX 18 27 2 0
BITMAP
07F800
1FFE00
7FFF00
7FFF00
783F80
601F80
001F80
001F80
001F80
003F00
007F00
1FFE00
1FF000
1FFE00
1FFF00
007F80
001FC0
000FC0
000FC0
000FC0
000FC0
C01FC0
F03F80
FFFF00
FFFF00
3FFC00
0FF000
ENDCHAR
STARTCHAR C0052-4
ENCODING 52
SWIDTH 515 0
DWIDTH 22 0
BBX 20 27 1 0
BITMAP
003F80
007F80
00FF80
00FF80
01FF80
01EF80
03EF80
07CF80
07CF80
0F8F80
0F0F80
1F0F80
3E0F80
3E0F80
7C0F80
7C0F80
F80F80
FFFFF0
FFFFF0
FFFFF0
FFFFF0
000F80
000F80
000F80
000F80
000F80
000F80
ENDCHAR
STARTCHAR C0053-5
ENCODING 53
SWIDTH 515 0
DWIDTH 22 0
BBX 18 27 2 0
BITMAP
7FFF00
7FFF00
7FFF00
7FFF00
7C0000
7C0000
7C0000
7C0000
7C0000
7C0000
7FF800
7FFE00
7FFF00
7FFF80
003F80
001FC0
000FC0
000FC0
000FC0
000FC0
000FC0
C01F80
F03F80
FFFF00
FFFE00
7FFC00
0FE000
ENDCHAR
STARTCHAR C0054-6
ENCODING 54
SWIDTH 515 0
DWIDTH 22 0
BBX 19 27 2 0
BITMAP
00FE00
07FF80
0FFF80
1FFF80
3F8180
3E0000
7C0000
7C0000
780000
F80000
F9FC00
FFFF00
FFFF80
FFFFC0
FE0FE0
F807E0
F803E0
F803E0
F803E0
F803E0
7C03E0
7C07C0
7E0FC0
3FFF80
3FFF00
0FFE00
03F800
ENDCHAR
STARTCHAR C0055-7
ENCODING 55
SWIDTH 515 0
DWIDTH 22 0
BBX 18 27 2 0
BITMAP
FFFFC0
FFFFC0
FFFFC0
FFFFC0
000FC0
001F80
001F80
001F00
003F00
003F00
007E00
007E00
00FC00
00FC00
00FC00
01F800
01F800
03F000
03F000
03F000
07E000
07E000
0FC000
0FC000
1FC000
1F8000
1F8000
ENDCHAR
STARTCHAR C0056-8
ENCODING 56
SWIDTH 515 0
DWIDTH 22 0
BBX 19 27 1 0
BITMAP
03FC00
0FFF00
1FFF80
3FFF80
7E0FC0
7C07C0
7C07C0
7C07C0
7C07C0
7E0F80
3F9F00
1FFE00
0FFC00
07FE00
0FFF00
3FBF80
7E0FC0
7C07E0
F803E0
F803E0
F803E0
F803E0
FE0FC0
7FFFC0
7FFF80
1FFF00
07F800
ENDCHAR
STARTCHAR C0057-9
ENCODING 57
SWIDTH 515 0
DWIDTH 22 0
BBX 19 27 1 0
BITMAP
03F800
0FFE00
1FFF00
3FFF80
7E0FC0
7C07C0
F807C0
F803E0
F803E0
F803E0
F803E0
FC03E0
FE0FE0
7FFFE0
3FFFE0
1FFFE0
07F3E0
0003E0
0003C0
0007C0
0007C0
000F80
703F80
7FFF00
7FFE00
7FF800
1FE000
ENDCHAR
STARTCHAR C0058-:
ENCODING 58
SWIDTH 281 0
DWIDTH 12 0
BBX 6 20 3 0
BITMAP
78
FC
FC
FC
FC
78
00
00
00
00
00
00
00
00
78
FC
FC
FC
FC
78
ENDCHAR
STARTCHAR C0059-;
ENCODING 59
SWIDTH 281 0
DWIDTH 12 0
BBX 8 26 1 -6
BITMAP
1E
3F
3F
3F
3F
1E
00
00
00
00
00
00
00
00
3E
3E
3E
3E
3E
3E
3C
7C
78
70
F0
E0
ENDCHAR
STARTCHAR C0060-<
ENCODING 60
SWIDTH 492 0
DWIDTH 21 0
BBX 18 21 1 2
BITMAP
0000C0
0003C0
000FC0
003FC0
00FFC0
03FF00
0FFC00
3FF000
FFC000
FE0000
F80000
FE0000
FF8000
3FE000
0FFC00
03FF00
00FFC0
003FC0
000FC0
0003C0
0000C0
ENDCHAR
STARTCHAR C0061-=
ENCODING 61
SWIDTH 492 0
DWIDTH 21 0
BBX 18 12 2 6
BITMAP
FFFFC0
FFFFC0
FFFFC0
FFFFC0
000000
000000
000000
000000
FFFFC0
FFFFC0
FFFFC0
FFFFC0
ENDCHAR
STARTCHAR C0062->
ENCODING 62
SWIDTH 492 0
DWIDTH 21 0
BBX 18 21 2 2
BITMAP
C00000
F00000
FC0000
FF0000
FFC000
3FF000
0FFC00
01FF00
007FC0
001FC0
0007C0
001FC0
00FFC0
03FF00
0FFC00
3FF000
FFC000
FF0000
FC0000
F00000
C00000
ENDCHAR
STARTCHAR C0063-?
ENCODING 63
SWIDTH 468 0
DWIDTH 20 0
BBX 16 29 2 0
BITMAP
1FC0
FFF8
FFFC
FFFE
C07E
003F
001F
001F
001F
001F
001F
003E
007E
0FFC
0FF8
0FE0
0F80
0F80
0F80
0F80
0F80
0000
0000
0780
0FC0
0FC0
0FC0
0FC0
0780
ENDCHAR
STARTCHAR C0064-@
ENCODING 64
SWIDTH 914 0
DWIDTH 39 0
BBX 33 33 3 -5
BITMAP
0003FF0000
001FFFE000
007FFFF800
01FFFFFC00
03FC03FE00
07F0007E00
0FC0003F00
1F80001F00
1F07871F80
3F1FEF0F80
3E3FFF0F80
7C3FFF0F80
7C7E7E0F80
7C7C3E0F80
7C7C3E0F80
F8F83E0F80
F8F83E0F80
F8F83C1F00
F8F83C1F00
F8F87C3F00
F8F8FE7E00
F8FFFFFC00
F87FDFFC00
F87F9FF000
7C3E07E000
7C00000000
7E00000000
3F00000000
3FE00E0000
1FFFFE0000
07FFFE0000
03FFFE0000
007FF00000
ENDCHAR
STARTCHAR C0065-A
ENCODING 65
SWIDTH 609 0
DWIDTH 26 0
BBX 25 27 0 0
BITMAP
007F0000
007F8000
00FF8000
00FF8000
00FFC000
01F7C000
01F7C000
01F7E000
03E3E000
03E3E000
03E3F000
07C1F000
07C1F000
07C1F800
0F81F800
0F80F800
0F80FC00
1FFFFC00
1FFFFC00
1FFFFE00
3FFFFE00
3E003E00
3E003F00
7E003F00
7C003F00
7C001F80
FC001F80
ENDCHAR
STARTCHAR C0066-B
ENCODING 66
SWIDTH 562 0
DWIDTH 24 0
BBX 19 27 3 0
BITMAP
FFF000
FFFC00
FFFF00
FFFF00
F83F80
F80F80
F80F80
F80F80
F80F80
F81F00
F83F00
FFFE00
FFFC00
FFFF00
FFFF80
F80FC0
F807E0
F803E0
F803E0
F803E0
F803E0
F807E0
F80FC0
FFFFC0
FFFF80
FFFE00
FFF800
ENDCHAR
STARTCHAR C0067-C
ENCODING 67
SWIDTH 539 0
DWIDTH 23 0
BBX 20 27 2 0
BITMAP
007F00
03FFE0
07FFF0
0FFFF0
1FC0F0
3F8030
3F0000
7E0000
7E0000
FC0000
FC0000
FC0000
FC0000
FC0000
FC0000
FC0000
FC0000
FC0000
7E0000
7E0000
7F0000
3F8030
3FC0F0
1FFFF0
0FFFF0
03FFE0
00FF00
ENDCHAR
STARTCHAR C0068-D
ENCODING 68
SWIDTH 632 0
DWIDTH 27 0
BBX 23 27 3 0
BITMAP
FFFC00
FFFF80
FFFFC0
FFFFF0
F80FF0
F803F8
F800FC
F800FC
F8007C
F8007E
F8003E
F8003E
F8003E
F8003E
F8003E
F8003E
F8003E
F8007E
F8007C
F800FC
F800FC
F801F8
F80FF0
FFFFE0
FFFFC0
FFFF80
FFFC00
ENDCHAR
STARTCHAR C0069-E
ENCODING 69
SWIDTH 492 0
DWIDTH 21 0
BBX 16 27 3 0
BITMAP
FFFF
FFFF
FFFF
FFFF
F800
F800
F800
F800
F800
F800
F800
FFFC
FFFC
FFFC
FFFC
F800
F800
F800
F800
F800
F800
F800
F800
FFFF
FFFF
FFFF
FFFF
ENDCHAR
STARTCHAR C0070-F
ENCODING 70
SWIDTH 468 0
DWIDTH 20 0
BBX 15 27 3 0
BITMAP
FFFE
FFFE
FFFE
FFFE
F800
F800
F800
F800
F800
F800
F800
F800
FFFC
FFFC
FFFC
FFFC
F800
F800
F800
F800
F800
F800
F800
F800
F800
F800
F800
ENDCHAR
STARTCHAR C0071-G
ENCODING 71
SWIDTH 632 0
DWIDTH 27 0
BBX 23 27 2 0
BITMAP
003FE0
01FFFC
07FFFE
0FFFFE
1FE03E
3F8006
3F0000
7E0000
7C0000
7C0000
F80000
F80000
F81FFE
F81FFE
F81FFE
F81FFE
F8003E
FC003E
7C003E
7E003E
7E003E
3F803E
1FE07E
0FFFFE
07FFFE
01FFFC
007FE0
ENDCHAR
STARTCHAR C0072-H
ENCODING 72
SWIDTH 632 0
DWIDTH 27 0
BBX 21 27 3 0
BITMAP
F800F8
F800F8
F800F8
F800F8
F800F8
F800F8
F800F8
F800F8
F800F8
F800F8
F800F8
FFFFF8
FFFFF8
FFFFF8
FFFFF8
F800F8
F800F8
F800F8
F800F8
F800F8
F800F8
F800F8
F800F8
F800F8
F800F8
F800F8
F800F8
ENDCHAR
STARTCHAR C0073-I
ENCODING 73
SWIDTH 257 0
DWIDTH 11 0
BBX 5 27 3 0
BITMAP
F8
F8
F8
F8
F8
F8
F8
F8
F8
F8
F8
F8
F8
F8
F8
F8
F8
F8
F8
F8
F8
F8
F8
F8
F8
F8
F8
ENDCHAR
STARTCHAR C0074-J
ENCODING 74
SWIDTH 328 0
DWIDTH 14 0
BBX 11 27 0 0
BITMAP
03E0
03E0
03E0
03E0
03E0
03E0
03E0
03E0
03E0
03E0
03E0
03E0
03E0
03E0
03E0
03E0
03E0
03E0
03E0
03E0
03E0
03E0
C7E0
FFC0
FFC0
FF80
3E00
ENDCHAR
STARTCHAR C0075-K
ENCODING 75
SWIDTH 562 0
DWIDTH 24 0
BBX 20 27 3 0
BITMAP
F803F0
F803F0
F807E0
F80FC0
F81F80
F83F00
F83E00
F87E00
F8FC00
F9F800
FBF000
FBE000
FFC000
FFE000
FBF000
FBF000
F9F800
F8FC00
F87E00
F87E00
F83F00
F81F80
F81FC0
F80FC0
F807E0
F803F0
F803F0
ENDCHAR
STARTCHAR C0076-L
ENCODING 76
SWIDTH 421 0
DWIDTH 18 0
BBX 15 27 3 0
BITMAP
F800
F800
F800
F800
F800
F800
F800
F800
F800
F800
F800
F800
F800
F800
F800
F800
F800
F800
F800
F800
F800
F800
F800
FFFE
FFFE
FFFE
FFFE
ENDCHAR
STARTCHAR C0077-M
ENCODING 77
SWIDTH 890 0
DWIDTH 38 0
BBX 32 27 3 0
BITMAP
7F0000FE
FF8001FF
FFC001FF
FFC003FF
FFC003FF
FBE003DF
FBE007DF
FBE007DF
F9F00F9F
F9F00F9F
F9F80F9F
F8F81F1F
F8F81F1F
F8FC3E1F
F87C3E1F
F87E3E1F
F83E7C1F
F83E7C1F
F83FFC1F
F81FF81F
F81FF81F
F81FF01F
F80FF01F
F80FF01F
F80FE01F
F807E01F
F807C01F
ENDCHAR
STARTCHAR C0078-N
ENCODING 78
SWIDTH 656 0
DWIDTH 28 0
BBX 22 27 3 0
BITMAP
7E007C
FF007C
FF807C
FF807C
FFC07C
FFC07C
FBC07C
FBE07C
FBE07C
F9F07C
F9F07C
F8F87C
F8F87C
F87C7C
F87C7C
F83C7C
F83E7C
F81E7C
F81F7C
F80F7C
F80FFC
F807FC
F807FC
F803FC
F803FC
F801FC
F800F8
ENDCHAR
STARTCHAR C0079-O
ENCODING 79
SWIDTH 679 0
DWIDTH 29 0
BBX 26 27 2 0
BITMAP
007FC000
03FFF000
07FFFC00
0FFFFE00
1FC0FF00
3F803F00
7F003F80
7E001F80
7E001FC0
FC000FC0
FC000FC0
FC000FC0
FC000FC0
FC000FC0
FC000FC0
FC000FC0
FC000FC0
FC000FC0
FE001F80
7E001F80
7F003F80
3F007F00
3FC0FE00
1FFFFC00
0FFFF800
03FFF000
00FF8000
ENDCHAR
STARTCHAR C0080-P
ENCODING 80
SWIDTH 539 0
DWIDTH 23 0
BBX 19 27 3 0
BITMAP
7FF800
FFFE00
FFFF80
FFFFC0
F81FC0
F80FE0
F807E0
F807E0
F807E0
F807E0
F807E0
F80FE0
F80FC0
F83FC0
FFFF80
FFFF00
FFFE00
FFF000
F80000
F80000
F80000
F80000
F80000
F80000
F80000
F80000
F80000
ENDCHAR
STARTCHAR C0081-Q
ENCODING 81
SWIDTH 703 0
DWIDTH 30 0
BBX 29 31 2 -4
BITMAP
007FC000
03FFF000
07FFFC00
0FFFFE00
1FC0FF00
3F803F00
7F003F80
7E001F80
7E001FC0
FC000FC0
FC000FC0
FC000FC0
FC000FC0
FC000FC0
FC000FC0
FC000FC0
FC000FC0
FC000FC0
FE001F80
7E001F80
7F003F80
3F007F00
3FC0FE00
1FFFFC00
0FFFFF00
07FFFFC0
00FF9FF8
00000FF8
000007F8
000001F8
00000038
ENDCHAR
STARTCHAR C0082-R
ENCODING 82
SWIDTH 562 0
DWIDTH 24 0
BBX 20 27 3 0
BITMAP
FFFC00
FFFF00
FFFF80
FFFFC0
F80FC0
F807E0
F803E0
F803E0
F803E0
F803E0
F807C0
F81FC0
FFFF80
FFFF00
FFF800
FFFE00
F87F00
F83F00
F81F80
F81F80
F80FC0
F80FC0
F80FE0
F807E0
F807E0
F803F0
F803F0
ENDCHAR
STARTCHAR C0083-S
ENCODING 83
SWIDTH 468 0
DWIDTH 20 0
BBX 18 27 1 0
BITMAP
03F800
1FFE00
3FFF00
7FFF00
7C0F00
F80300
F80000
F80000
FC0000
FE0000
7F8000
7FF000
3FFC00
0FFE00
03FF00
00FF80
003FC0
000FC0
0007C0
0007C0
0007C0
C00FC0
F81F80
FFFF00
FFFE00
7FFC00
0FF000
ENDCHAR
STARTCHAR C0084-T
ENCODING 84
SWIDTH 492 0
DWIDTH 21 0
BBX 21 27 0 0
BITMAP
FFFFF8
FFFFF8
FFFFF8
FFFFF8
00F800
00F800
00F800
00F800
00F800
00F800
00F800
00F800
00F800
00F800
00F800
00F800
00F800
00F800
00F800
00F800
00F800
00F800
00F800
00F800
00F800
00F800
00F800
ENDCHAR
STARTCHAR C0085-U
ENCODING 85
SWIDTH 656 0
DWIDTH 28 0
BBX 22 27 3 0
BITMAP
F8007C
F8007C
F8007C
F8007C
F8007C
F8007C
F8007C
F8007C
F8007C
F8007C
F8007C
F8007C
F8007C
F8007C
F8007C
F8007C
F8007C
F8007C
F8007C
F8007C
FC00F8
7E01F8
7F03F8
3FFFF0
1FFFE0
0FFF80
01FE00
ENDCHAR
STARTCHAR C0086-V
ENCODING 86
SWIDTH 585 0
DWIDTH 25 0
BBX 25 27 1 0
BITMAP
F8000F80
FC001F80
7C001F00
7C001F00
7E003F00
3E003E00
3E003E00
3F007E00
1F007C00
1F007C00
1F80FC00
0F80F800
0F80F800
0FC1F800
07C1F000
07C1F000
07E3E000
03E3E000
03E3E000
03F7C000
01F7C000
01F7C000
01FF8000
00FF8000
00FF8000
00FF0000
007F0000
ENDCHAR
STARTCHAR C0087-W
ENCODING 87
SWIDTH 914 0
DWIDTH 39 0
BBX 38 27 1 0
BITMAP
F800FC007C
FC00FC00FC
7C01FC00F8
7C01FE00F8
7C01FE00F8
7E01FE01F8
3E03FF01F0
3E03FF01F0
3E03FF01F0
3F03DF03F0
1F07DF83E0
1F07DF83E0
1F07CF83E0
1F878F83C0
0F8F8FC7C0
0F8F8FC7C0
0F8F87C7C0
0F8F07C780
07DF07EF80
07DF07EF80
07DF03EF80
07DE03EF00
03FE03FF00
03FE01FF00
03FE01FE00
03FC01FE00
01FC00FE00
ENDCHAR
STARTCHAR C0088-X
ENCODING 88
SWIDTH 562 0
DWIDTH 24 0
BBX 22 27 1 0
BITMAP
FC00F8
7C00F8
7E01F8
3E03F0
3F03F0
1F07E0
1F8FE0
0F8FC0
0FDFC0
07DF80
03FF00
03FF00
01FE00
01FE00
03FF00
03FF00
07FF80
07DF80
0F8FC0
1F8FE0
1F07E0
3F03F0
3E03F0
7E01F8
7C01F8
FC00FC
F8007C
ENDCHAR
STARTCHAR C0089-Y
ENCODING 89
SWIDTH 515 0
DWIDTH 22 0
BBX 21 27 0 0
BITMAP
FC01F8
7C01F0
7E03F0
3E03E0
3F03E0
1F07C0
1F07C0
0F8F80
0F8F80
07DF00
07DF00
07FF00
03FE00
03FE00
01FC00
01FC00
00F800
00F800
00F800
00F800
00F800
00F800
00F800
00F800
00F800
00F800
00F800
ENDCHAR
STARTCHAR C0090-Z
ENCODING 90
SWIDTH 492 0
DWIDTH 21 0
BBX 19 27 1 0
BITMAP
FFFFC0
FFFFC0
FFFFC0
FFFFC0
000FC0
001F80
003F00
003F00
007E00
007E00
00FC00
01F800
01F800
03F000
07E000
07E000
0FC000
0F8000
1F8000
3F0000
3F0000
7E0000
7C0000
FFFFE0
FFFFE0
FFFFE0
FFFFE0
ENDCHAR
STARTCHAR C0091-[
ENCODING 91
SWIDTH 328 0
DWIDTH 14 0
BBX 9 37 3 -7
BITMAP
FF80
FF80
FF80
FF80
F800
F800
F800
F800
F800
F800
F800
F800
F800
F800
F800
F800
F800
F800
F800
F800
F800
F800
F800
F800
F800
F800
F800
F800
F800
F800
F800
F800
F800
FF80
FF80
FF80
FF80
ENDCHAR
STARTCHAR C0092-\
ENCODING 92
SWIDTH 421 0
DWIDTH 18 0
BBX 17 37 1 -6
BITMAP
F80000
F80000
FC0000
7C0000
7C0000
7E0000
3E0000
3E0000
3F0000
1F0000
1F0000
1F8000
0F8000
0F8000
0FC000
07C000
07C000
03E000
03E000
03E000
01F000
01F000
01F800
00F800
00F800
00FC00
007C00
007C00
007E00
003E00
003E00
003F00
001F00
001F00
001F80
000F80
000F80
ENDCHAR
STARTCHAR C0093-]
ENCODING 93
SWIDTH 328 0
DWIDTH 14 0
BBX 9 37 2 -7
BITMAP
FF80
FF80
FF80
FF80
0F80
0F80
0F80
0F80
0F80
0F80
0F80
0F80
0F80
0F80
0F80
0F80
0F80
0F80
0F80
0F80
0F80
0F80
0F80
0F80
0F80
0F80
0F80
0F80
0F80
0F80
0F80
0F80
0F80
FF80
FF80
FF80
FF80
ENDCHAR
STARTCHAR C0094-^
ENCODING 94
SWIDTH 492 0
DWIDTH 21 0
BBX 20 17 1 10
BITMAP
01F800
03F800
03FC00
07FC00
07BE00
0FBE00
0FBF00
0F1F00
1F1F80
1F0F80
3E0F80
3E07C0
3E07C0
7C07E0
7C03E0
FC03F0
F801F0
ENDCHAR
STARTCHAR C0095-_
ENCODING 95
SWIDTH 492 0
DWIDTH 21 0
BBX 22 4 0 -7
BITMAP
FFFFFC
FFFFFC
FFFFFC
FFFFFC
ENDCHAR
STARTCHAR C0096-`
ENCODING 96
SWIDTH 304 0
DWIDTH 13 0
BBX 8 7 2 23
BITMAP
F8
F8
7C
3E
1E
1F
0F
ENDCHAR
STARTCHAR C0097-a
ENCODING 97
SWIDTH 492 0
DWIDTH 21 0
BBX 17 20 1 0
BITMAP
07F800
1FFE00
7FFF00
7FFF00
781F80
600F80
000F80
000F80
07FF80
1FFF80
7FFF80
7FFF80
FC0F80
F80F80
F80F80
FC3F80
FFFF80
7FFF80
3FF780
0FC780
ENDCHAR
STARTCHAR C0098-b
ENCODING 98
SWIDTH 539 0
DWIDTH 23 0
BBX 19 29 3 0
BITMAP
F80000
F80000
F80000
F80000
F80000
F80000
F80000
F80000
F80000
F8FC00
FBFF00
FFFF80
FFFFC0
FF0FC0
FC07C0
F807E0
F803E0
F803E0
F803E0
F803E0
F803E0
F803E0
F807E0
FC07C0
FF0FC0
FFFF80
F7FF80
F3FF00
F0FC00
ENDCHAR
STARTCHAR C0099-c
ENCODING 99
SWIDTH 421 0
DWIDTH 18 0
BBX 15 20 2 0
BITMAP
03F0
0FFC
1FFE
3FFE
7E0E
7C06
FC00
F800
F800
F800
F800
F800
F800
FC00
7C06
7E0E
3FFE
3FFE
1FFC
07F0
ENDCHAR
STARTCHAR C0100-d
ENCODING 100
SWIDTH 539 0
DWIDTH 23 0
BBX 19 29 2 0
BITMAP
0003E0
0003E0
0003E0
0003E0
0003E0
0003E0
0003E0
0003E0
0003E0
07E3E0
1FFBE0
3FFFE0
3FFFE0
7E1FE0
7C07E0
FC03E0
F803E0
F803E0
F803E0
F803E0
F803E0
F803E0
FC07E0
7C0FE0
7E1FE0
7FFFE0
3FFDE0
1FF9E0
07E1E0
ENDCHAR
STARTCHAR C0101-e
ENCODING 101
SWIDTH 515 0
DWIDTH 22 0
BBX 18 20 2 0
BITMAP
03F800
0FFE00
1FFF00
3FFF80
7E0F80
7C07C0
F807C0
FFFFC0
FFFFC0
FFFFC0
FFFFC0
F80000
F80000
F80000
7C0000
7E0380
3FFF80
3FFF80
0FFF80
03FE00
ENDCHAR
STARTCHAR C0102-f
ENCODING 102
SWIDTH 328 0
DWIDTH 14 0
BBX 13 29 1 0
BITMAP
03F0
07F8
0FF8
0FF8
1F80
1F00
1F00
1F00
1F00
FFF0
FFF0
FFF0
FFF0
1F00
1F00
1F00
1F00
1F00
1F00
1F00
1F00
1F00
1F00
1F00
1F00
1F00
1F00
1F00
1F00
ENDCHAR
STARTCHAR C0103-g
ENCODING 103
SWIDTH 468 0
DWIDTH 20 0
BBX 19 27 1 -7
BITMAP
07FFC0
1FFFE0
3FFFE0
3FFFC0
7E1F00
7C0F00
780F00
7C0F00
7C1F00
7FFF00
3FFE00
3FFC00
7BF000
780000
F80000
FFFC00
7FFF00
3FFF80
7FFFC0
FC0FC0
F807C0
F807C0
FC0FC0
FFFF80
FFFF80
7FFE00
0FF800
ENDCHAR
STARTCHAR C0104-h
ENCODING 104
SWIDTH 539 0
DWIDTH 23 0
BBX 18 29 3 0
BITMAP
F80000
F80000
F80000
F80000
F80000
F80000
F80000
F80000
F80000
F8FC00
FBFF00
FFFF80
FFFF80
FF1FC0
FC0FC0
F807C0
F807C0
F807C0
F807C0
F807C0
F807C0
F807C0
F807C0
F807C0
F807C0
F807C0
F807C0
F807C0
F807C0
ENDCHAR
STARTCHAR C0105-i
ENCODING 105
SWIDTH 257 0
DWIDTH 11 0
BBX 6 29 3 0
BITMAP
78
FC
FC
FC
FC
78
00
00
00
F8
F8
F8
F8
F8
F8
F8
F8
F8
F8
F8
F8
F8
F8
F8
F8
F8
F8
F8
F8
ENDCHAR
STARTCHAR C0106-j
ENCODING 106
SWIDTH 257 0
DWIDTH 11 0
BBX 10 36 -1 -7
BITMAP
0780
0FC0
0FC0
0FC0
0FC0
0780
0000
0000
0000
0F80
0F80
0F80
0F80
0F80
0F80
0F80
0F80
0F80
0F80
0F80
0F80
0F80
0F80
0F80
0F80
0F80
0F80
0F80
0F80
0F80
0F80
1F80
FF80
FF00
FE00
FC00
ENDCHAR
STARTCHAR C0107-k
ENCODING 107
SWIDTH 492 0
DWIDTH 21 0
BBX 17 29 3 0
BITMAP
F80000
F80000
F80000
F80000
F80000
F80000
F80000
F80000
F80000
F83F00
F83F00
F87E00
F8FC00
F8F800
F9F800
FBF000
FBE000
FFC000
FFE000
FBE000
FBF000
F9F800
F8F800
F8FC00
F87E00
F87F00
F83F00
F81F80
F81F80
ENDCHAR
STARTCHAR C0108-l
ENCODING 108
SWIDTH 257 0
DWIDTH 11 0
BBX 5 29 3 0
BITMAP
F8
F8
F8
F8
F8
F8
F8
F8
F8
F8
F8
F8
F8
F8
F8
F8
F8
F8
F8
F8
F8
F8
F8
F8
F8
F8
F8
F8
F8
ENDCHAR
STARTCHAR C0109-m
ENCODING 109
SWIDTH 820 0
DWIDTH 35 0
BBX 30 20 3 0
BITMAP
F0FC07C0
F3FF1FF0
F7FFBFF8
FFFFFFF8
FF1FF0FC
FC0FE0FC
F807C07C
F807C07C
F807C07C
F807C07C
F807C07C
F807C07C
F807C07C
F807C07C
F807C07C
F807C07C
F807C07C
F807C07C
F807C07C
F807C07C
ENDCHAR
STARTCHAR C0110-n
ENCODING 110
SWIDTH 539 0
DWIDTH 23 0
BBX 18 20 3 0
BITMAP
F0FC00
F3FF00
F7FF80
FFFF80
FF1FC0
FC0FC0
F807C0
F807C0
F807C0
F807C0
F807C0
F807C0
F807C0
F807C0
F807C0
F807C0
F807C0
F807C0
F807C0
F807C0
ENDCHAR
STARTCHAR C0111-o
ENCODING 111
SWIDTH 539 0
DWIDTH 23 0
BBX 20 20 2 0
BITMAP
03FC00
0FFF00
1FFFC0
3FFFC0
7F07E0
7C03E0
FC03F0
F801F0
F801F0
F801F0
F801F0
F801F0
F801F0
FC03F0
7C03E0
7E0FE0
3FFFC0
3FFF80
0FFF00
03FC00
ENDCHAR
STARTCHAR C0112-p
ENCODING 112
SWIDTH 539 0
DWIDTH 23 0
BBX 19 27 3 -7
BITMAP
F0FC00
F3FF00
F7FF80
FFFFC0
FF0FC0
FE07C0
FC07E0
F803E0
F803E0
F803E0
F803E0
F803E0
F803E0
F807E0
FC07C0
FF0FC0
FFFF80
FFFF80
FBFF00
F8FC00
F80000
F80000
F80000
F80000
F80000
F80000
F80000
ENDCHAR
STARTCHAR C0113-q
ENCODING 113
SWIDTH 539 0
DWIDTH 23 0
BBX 19 27 2 -7
BITMAP
07E1E0
0FF9E0
3FFDE0
3FFFE0
7E1FE0
7C07E0
FC03E0
F803E0
F803E0
F803E0
F803E0
F803E0
F803E0
FC07E0
7C0FE0
7E1FE0
7FFFE0
3FFFE0
1FFBE0
07E3E0
0003E0
0003E0
0003E0
0003E0
0003E0
0003E0
0003E0
ENDCHAR
STARTCHAR C0114-r
ENCODING 114
SWIDTH 351 0
DWIDTH 15 0
BBX 12 20 3 0
BITMAP
F1F0
F3F0
F7F0
FFF0
FFF0
FE00
FC00
F800
F800
F800
F800
F800
F800
F800
F800
F800
F800
F800
F800
F800
ENDCHAR
STARTCHAR C0115-s
ENCODING 115
SWIDTH 398 0
DWIDTH 17 0
BBX 14 20 2 0
BITMAP
0FE0
3FF8
7FF8
FFF8
F818
F800
F800
FE00
7FC0
7FF0
1FF8
07F8
00FC
007C
C07C
F0FC
FFF8
FFF8
7FF0
1FC0
ENDCHAR
STARTCHAR C0116-t
ENCODING 116
SWIDTH 351 0
DWIDTH 15 0
BBX 13 25 1 0
BITMAP
1F00
1F00
1F00
1F00
1F00
FFF8
FFF8
FFF8
FFF8
1F00
1F00
1F00
1F00
1F00
1F00
1F00
1F00
1F00
1F00
1F00
1F80
1FF8
0FF8
07F8
03F0
ENDCHAR
STARTCHAR C0117-u
ENCODING 117
SWIDTH 539 0
DWIDTH 23 0
BBX 18 20 3 0
BITMAP
F807C0
F807C0
F807C0
F807C0
F807C0
F807C0
F807C0
F807C0
F807C0
F807C0
F807C0
F807C0
F807C0
F807C0
FC0FC0
FE3FC0
7FFFC0
7FFBC0
3FF3C0
0FC3C0
ENDCHAR
STARTCHAR C0118-v
ENCODING 118
SWIDTH 468 0
DWIDTH 20 0
BBX 21 20 0 0
BITMAP
7800F0
7C01F0
7C01F0
7C01F0
3E03E0
3E03E0
3F07E0
1F07C0
1F07C0
1F8FC0
0F8F80
0F8F80
0FDF80
07DF00
07DF00
07FF00
03FE00
03FE00
03FC00
01FC00
ENDCHAR
STARTCHAR C0119-w
ENCODING 119
SWIDTH 750 0
DWIDTH 32 0
BBX 31 20 0 0
BITMAP
F807C03E
FC07E07E
7C07E07C
7C0FE07C
7E0FF07C
7E0FF0FC
3E0FF0F8
3E1FF0F8
3F1EF8F8
1F1EF8F0
1F1EF9F0
1FBC7DF0
0FBC7DF0
0FBC7DE0
0FBC3DE0
0FF83FE0
07F83FC0
07F83FC0
07F81FC0
03F01FC0
ENDCHAR
STARTCHAR C0120-x
ENCODING 120
SWIDTH 468 0
DWIDTH 20 0
BBX 19 20 0 0
BITMAP
7C07C0
7E07C0
3E0F80
3F0F80
1F9F00
1FDF00
0FDE00
07FE00
07FC00
03FC00
07FC00
07FE00
0FFE00
0FBF00
1F3F00
3F1F80
3E1F80
7E0FC0
7C0FC0
F807E0
ENDCHAR
STARTCHAR C0121-y
ENCODING 121
SWIDTH 468 0
DWIDTH 20 0
BBX 20 27 0 -7
BITMAP
F801F0
FC03F0
7C03E0
7C03E0
7E07E0
3E07C0
3F07C0
1F0FC0
1F0F80
1F8F80
0F8F80
0FDF00
07DF00
07DF00
07FE00
03FE00
03FE00
03FC00
01FC00
01FC00
00F800
01F800
01F000
03F000
03F000
07E000
07E000
ENDCHAR
STARTCHAR C0122-z
ENCODING 122
SWIDTH 398 0
DWIDTH 17 0
BBX 14 20 1 0
BITMAP
FFF8
FFF8
FFF8
FFF8
01F8
03F0
03E0
07E0
0FC0
0FC0
1F80
1F80
3F00
3E00
7E00
7C00
FFFC
FFFC
FFFC
FFFC
ENDCHAR
STARTCHAR C0123-{
ENCODING 123
SWIDTH 351 0
DWIDTH 15 0
BBX 12 37 1 -7
BITMAP
01F0
03F0
07F0
0FF0
0FC0
0F80
0F80
0F80
0F80
0F80
0F80
0F80
0F80
0F80
1F80
3F00
FE00
FC00
FC00
FE00
3F00
1F80
0F80
0F80
0F80
0F80
0F80
0F80
0F80
0F80
0F80
0F80
0FC0
0FF0
07F0
03F0
01F0
ENDCHAR
STARTCHAR C0124-|
ENCODING 124
SWIDTH 468 0
DWIDTH 20 0
BBX 5 37 8 -7
BITMAP
F8
F8
F8
F8
F8
F8
F8
F8
F8
F8
F8
F8
F8
F8
F8
F8
F8
F8
F8
F8
F8
F8
F8
F8
F8
F8
F8
F8
F8
F8
F8
F8
F8
F8
F8
F8
F8
ENDCHAR
STARTCHAR C0125-}
ENCODING 125
SWIDTH 351 0
DWIDTH 15 0
BBX 12 37 3 -7
BITMAP
F800
FC00
FE00
FF00
1F00
1F00
1F00
1F00
1F00
1F00
1F00
1F00
1F00
1F00
1F00
0F80
0FF0
03F0
03F0
07F0
0FC0
0F80
1F00
1F00
1F00
1F00
1F00
1F00
1F00
1F00
1F00
1F00
3F00
FF00
FE00
FC00
F800
ENDCHAR
STARTCHAR C0126-~
ENCODING 126
SWIDTH 492 0
DWIDTH 21 0
BBX 19 8 1 16
BITMAP
1F01E0
3FC1E0
7FE1E0
FFF3E0
F9FFC0
F0FFC0
F07F80
F01F00
ENDCHAR
STARTCHAR C0127
ENCODING 127
SWIDTH 515 0
DWIDTH 22 0
BBX 21 27 1 0
BITMAP
FFFFF8
FFFFF8
FFFFF8
E00038
E00038
E3F838
E7FC38
E7FE38
E41F38
E00F38
E00F38
E00F38
E01E38
E1FC38
E1F838
E1C038
E1C038
E00038
E1E038
E1E038
E1E038
E1E038
E00038
E00038
FFFFF8
FFFFF8
FFFFF8
ENDCHAR
STARTCHAR C0128
ENCODING 128
SWIDTH 515 0
DWIDTH 22 0
BBX 20 27 1 0
BITMAP
007F80
01FFE0
07FFF0
07FFF0
0FC0F0
1F8030
1F0000
1F0000
FFFE00
FFFE00
FFFE00
FFFE00
3E0000
3E0000
3E0000
FFFE00
FFFE00
FFFE00
FFFE00
3F0000
1F0000
1F8030
1FC0F0
0FFFF0
07FFF0
03FFE0
007F80
ENDCHAR
STARTCHAR C0129
ENCODING 129
SWIDTH 515 0
DWIDTH 22 0
BBX 21 27 1 0
BITMAP
FFFFF8
FFFFF8
FFFFF8
E00038
E00038
E3F838
E7FC38
E7FE38
E41F38
E00F38
E00F38
E00F38
E01E38
E1FC38
E1F838
E1C038
E1C038
E00038
E1E038
E1E038
E1E038
E1E038
E00038
E00038
FFFFF8
FFFFF8
FFFFF8
ENDCHAR
STARTCHAR C0130
ENCODING 130
SWIDTH 257 0
DWIDTH 11 0
BBX 8 12 0 -6
BITMAP
1F
1F
1F
1F
1F
1E
3E
3C
7C
78
F0
F0
ENDCHAR
STARTCHAR C0131
ENCODING 131
SWIDTH 328 0
DWIDTH 14 0
BBX 14 36 0 -7
BITMAP
01F8
03FC
07FC
07FC
0FC0
0F80
0F80
0F80
0F80
7FF8
7FF8
7FF8
7FF8
0F80
0F80
0F80
0F80
0F80
0F80
0F80
0F80
0F80
0F80
0F80
0F80
0F80
0F80
0F80
0F80
0F80
0F80
1F80
FF00
FF00
FE00
FC00
ENDCHAR
STARTCHAR C0132
ENCODING 132
SWIDTH 445 0
DWIDTH 19 0
BBX 15 12 1 -6
BITMAP
3E3E
3E3E
3E3E
3E3E
3E3E
3E3E
3C3C
7C7C
7878
7070
F0F0
E0E0
ENDCHAR
STARTCHAR C0133
ENCODING 133
SWIDTH 726 0
DWIDTH 31 0
BBX 25 6 3 0
BITMAP
783C0F00
FC7E1F80
FC7E1F80
FC7E1F80
FC7E1F80
783C0F00
ENDCHAR
STARTCHAR C0134
ENCODING 134
SWIDTH 492 0
DWIDTH 21 0
BBX 18 25 2 4
BITMAP
03F000
03F000
03F000
03F000
03F000
01E000
01E000
FFFFC0
FFFFC0
FFFFC0
FFFFC0
01E000
01E000
03F000
03F000
03F000
03F000
03F000
03F000
03F000
03F000
01E000
01E000
01E000
01E000
ENDCHAR
STARTCHAR C0135
ENCODING 135
SWIDTH 492 0
DWIDTH 21 0
BBX 18 29 2 0
BITMAP
03F000
03F000
03F000
03F000
03F000
01E000
01E000
FFFFC0
FFFFC0
FFFFC0
FFFFC0
01E000
03F000
03F000
03F000
03F000
03F000
01E000
FFFFC0
FFFFC0
FFFFC0
FFFFC0
01E000
01E000
03F000
03F000
03F000
03F000
03F000
ENDCHAR
STARTCHAR C0136
ENCODING 136
SWIDTH 398 0
DWIDTH 17 0
BBX 13 7 2 23
BITMAP
0F80
1FC0
1FC0
3DE0
7DF0
78F0
F078
ENDCHAR
STARTCHAR C0137
ENCODING 137
SWIDTH 1078 0
DWIDTH 46 0
BBX 44 29 1 -1
BITMAP
0FC003C00000
3FE003C00000
7FF007800000
78F80F000000
F0781F000000
F0781E000000
F0783C000000
F0787C000000
F07878000000
F078F0000000
F8F1E0000000
7FF3E0000000
3FE3C0000000
1F8780000000
000F87E01F80
000F1FF07FC0
001E3FF8FFE0
003E3C7CF1F0
003C783DE0F0
0078783DE0F0
00F0783DE0F0
01F0783DE0F0
01E0783DE0F0
03C0783DE0F0
07C07C79F1E0
07803FF8FFE0
0F001FF07FC0
1E000FC03F00
1E0000000000
ENDCHAR
STARTCHAR C0138
ENCODING 138
SWIDTH 468 0
DWIDTH 20 0
BBX 18 35 1 0
BITMAP
3E0F80
1F1F00
0FBE00
07FC00
03F800
01F000
000000
000000
03F800
1FFE00
3FFF00
7FFF00
7C0F00
F80300
F80000
F80000
FC0000
FE0000
7F8000
7FF000
3FFC00
0FFE00
03FF00
00FF80
003FC0
000FC0
0007C0
0007C0
0007C0
C00FC0
F81F80
FFFF00
FFFE00
7FFC00
0FF000
ENDCHAR
STARTCHAR C0139
ENCODING 139
SWIDTH 351 0
DWIDTH 15 0
BBX 9 18 2 2
BITMAP
0780
0F80
0F00
1F00
3E00
3E00
7C00
FC00
F800
F800
FC00
7C00
3E00
3E00
1F00
0F00
0F80
0780
ENDCHAR
STARTCHAR C0140
ENCODING 140
SWIDTH 890 0
DWIDTH 38 0
BBX 34 27 2 0
BITMAP
007FDFFFC0
03FFFFFFC0
07FFFFFFC0
0FFFFFFFC0
1FC0FE0000
3F803E0000
7F003E0000
7E003E0000
7E003E0000
FC003E0000
FC003E0000
FC003FFF00
FC003FFF00
FC003FFF00
FC003FFF00
FC003E0000
FC003E0000
FC003E0000
FE003E0000
7E003E0000
7F003E0000
3F003E0000
3FC0FE0000
1FFFFFFFC0
0FFFFFFFC0
07FFFFFFC0
00FFDFFFC0
ENDCHAR
STARTCHAR C0141
ENCODING 141
SWIDTH 515 0
DWIDTH 22 0
BBX 21 27 1 0
BITMAP
FFFFF8
FFFFF8
FFFFF8
E00038
E00038
E3F838
E7FC38
E7FE38
E41F38
E00F38
E00F38
E00F38
E01E38
E1FC38
E1F838
E1C038
E1C038
E00038
E1E038
E1E038
E1E038
E1E038
E00038
E00038
FFFFF8
FFFFF8
FFFFF8
ENDCHAR
STARTCHAR C0142
ENCODING 142
SWIDTH 492 0
DWIDTH 21 0
BBX 19 35 1 0
BITMAP
3E0F80
1F1F00
0FBE00
07FC00
03F800
01F000
000000
000000
FFFFC0
FFFFC0
FFFFC0
FFFFC0
000FC0
001F80
003F00
003F00
007E00
007E00
00FC00
01F800
01F800
03F000
07E000
07E000
0FC000
0F8000
1F8000
3F0000
3F0000
7E0000
7C0000
FFFFE0
FFFFE0
FFFFE0
FFFFE0
ENDCHAR
STARTCHAR C0143
ENCODING 143
SWIDTH 515 0
DWIDTH 22 0
BBX 21 27 1 0
BITMAP
FFFFF8
FFFFF8
FFFFF8
E00038
E00038
E3F838
E7FC38
E7FE38
E41F38
E00F38
E00F38
E00F38
E01E38
E1FC38
E1F838
E1C038
E1C038
E00038
E1E038
E1E038
E1E038
E1E038
E00038
E00038
FFFFF8
FFFFF8
FFFFF8
ENDCHAR
STARTCHAR C0144
ENCODING 144
SWIDTH 515 0
DWIDTH 22 0
BBX 21 27 1 0
BITMAP
FFFFF8
FFFFF8
FFFFF8
E00038
E00038
E3F838
E7FC38
E7FE38
E41F38
E00F38
E00F38
E00F38
E01E38
E1FC38
E1F838
E1C038
E1C038
E00038
E1E038
E1E038
E1E038
E1E038
E00038
E00038
FFFFF8
FFFFF8
FFFFF8
ENDCHAR
STARTCHAR C0145
ENCODING 145
SWIDTH 257 0
DWIDTH 11 0
BBX 8 12 2 17
BITMAP
0F
0F
1E
3E
3C
7C
78
F8
F8
F8
F8
F8
ENDCHAR
STARTCHAR C0146
ENCODING 146
SWIDTH 257 0
DWIDTH 11 0
BBX 8 12 0 17
BITMAP
1F
1F
1F
1F
1F
1E
3E
3C
7C
78
F0
F0
ENDCHAR
STARTCHAR C0147
ENCODING 147
SWIDTH 445 0
DWIDTH 19 0
BBX 15 12 2 17
BITMAP
0E0E
1E1E
1C1C
3C3C
7C7C
7878
F8F8
F8F8
F8F8
F8F8
F8F8
F8F8
ENDCHAR
STARTCHAR C0148
ENCODING 148
SWIDTH 445 0
DWIDTH 19 0
BBX 15 12 1 17
BITMAP
3E3E
3E3E
3E3E
3E3E
3E3E
3E3E
3C3C
7C7C
7878
7070
F0F0
E0E0
ENDCHAR
STARTCHAR C0149
ENCODING 149
SWIDTH 492 0
DWIDTH 21 0
BBX 15 15 3 6
BITMAP
07C0
1FF0
3FF8
7FFC
7FFC
FFFE
FFFE
FFFE
FFFE
FFFE
7FFC
7FFC
3FF8
1FF0
07C0
ENDCHAR
STARTCHAR C0150
ENCODING 150
SWIDTH 492 0
DWIDTH 21 0
BBX 22 4 0 10
BITMAP
FFFFFC
FFFFFC
FFFFFC
FFFFFC
ENDCHAR
STARTCHAR C0151
ENCODING 151
SWIDTH 914 0
DWIDTH 39 0
BBX 33 4 3 10
BITMAP
FFFFFFFF80
FFFFFFFF80
FFFFFFFF80
FFFFFFFF80
ENDCHAR
STARTCHAR C0152
ENCODING 152
SWIDTH 445 0
DWIDTH 19 0
BBX 15 6 2 23
BITMAP
3E0E
7F8E
FFFE
FFFE
E3FC
E0F8
ENDCHAR
STARTCHAR C0153
ENCODING 153
SWIDTH 726 0
DWIDTH 31 0
BBX 28 12 1 15
BITMAP
FFCF81E0
FFCF83F0
FFCFC3F0
1E0FC7F0
1E0EC7F0
1E0EEFF0
1E0EEEF0
1E0E6EF0
1E0E7CF0
1E0E7CF0
1E0E3CF0
1E0E38F0
ENDCHAR
STARTCHAR C0154
ENCODING 154
SWIDTH 398 0
DWIDTH 17 0
BBX 14 30 2 0
BITMAP
F078
78F0
7DF0
3DE0
1FC0
1FC0
0F80
0000
0000
0000
0FE0
3FF8
7FF8
FFF8
F818
F800
F800
FE00
7FC0
7FF0
1FF8
07F8
00FC
007C
C07C
F0FC
FFF8
FFF8
7FF0
1FC0
ENDCHAR
STARTCHAR C0155
ENCODING 155
SWIDTH 351 0
DWIDTH 15 0
BBX 9 18 4 2
BITMAP
F000
F800
7800
7C00
3E00
3E00
1F00
1F80
0F80
0F80
1F80
1F00
3E00
3E00
7C00
7800
F800
F000
ENDCHAR
STARTCHAR C0156
ENCODING 156
SWIDTH 843 0
DWIDTH 36 0
BBX 33 20 2 0
BITMAP
01FC07F000
0FFF1FFC00
1FFFBFFE00
3FFFFFFF00
7F07FC1F00
7C03F00F80
FC03F00F80
F801FFFF80
F801FFFF80
F801FFFF80
F801FFFF80
F801F00000
F801F00000
FC03F00000
7C03F80000
7E0FFC0700
3FFFFFFF00
3FFFBFFF00
0FFE1FFF00
03F807F800
ENDCHAR
STARTCHAR C0157
ENCODING 157
SWIDTH 515 0
DWIDTH 22 0
BBX 21 27 1 0
BITMAP
FFFFF8
FFFFF8
FFFFF8
E00038
E00038
E3F838
E7FC38
E7FE38
E41F38
E00F38
E00F38
E00F38
E01E38
E1FC38
E1F838
E1C038
E1C038
E00038
E1E038
E1E038
E1E038
E1E038
E00038
E00038
FFFFF8
FFFFF8
FFFFF8
ENDCHAR
STARTCHAR C0158
ENCODING 158
SWIDTH 398 0
DWIDTH 17 0
BBX 14 30 1 0
BITMAP
783C
3C78
3EF8
1EF0
0FE0
0FE0
07C0
0000
0000
0000
FFF8
FFF8
FFF8
FFF8
01F8
03F0
03E0
07E0
0FC0
0FC0
1F80
1F80
3F00
3E00
7E00
7C00
FFFC
FFFC
FFFC
FFFC
ENDCHAR
STARTCHAR C0159
ENCODING 159
SWIDTH 515 0
DWIDTH 22 0
BBX 21 34 0 0
BITMAP
0381C0
07C3E0
07C3E0
07C3E0
0381C0
000000
000000
FC01F8
7C01F0
7E03F0
3E03E0
3F03E0
1F07C0
1F07C0
0F8F80
0F8F80
07DF00
07DF00
07FF00
03FE00
03FE00
01FC00
01FC00
00F800
00F800
00F800
00F800
00F800
00F800
00F800
00F800
00F800
00F800
00F800
ENDCHAR
STARTCHAR C0160
ENCODING 160
SWIDTH 234 0
DWIDTH 10 0
BBX 1 1 0 -1
BITMAP
00
ENDCHAR
STARTCHAR C0161
ENCODING 161
SWIDTH 328 0
DWIDTH 14 0
BBX 6 29 3 -4
BITMAP
78
FC
FC
FC
FC
78
00
00
38
7C
7C
7C
7C
7C
7C
7C
7C
7C
7C
7C
7C
7C
7C
7C
7C
7C
7C
7C
7C
ENDCHAR
STARTCHAR C0162
ENCODING 162
SWIDTH 492 0
DWIDTH 21 0
BBX 15 27 4 0
BITMAP
01E0
01E0
01E0
01E0
03F8
0FFC
3FFE
3FFE
7E0E
7C06
FC00
F800
F800
F800
F800
F800
F800
FC06
7E0E
7FFE
3FFE
1FFC
07F8
01E0
01E0
01E0
01E0
ENDCHAR
STARTCHAR C0163
ENCODING 163
SWIDTH 515 0
DWIDTH 22 0
BBX 19 27 1 0
BITMAP
00FE00
03FF80
07FFC0
0FFFC0
0FC1C0
0F80C0
1F0000
1F0000
1F0000
1F0000
1F0000
1F0000
FFFE00
FFFE00
FFFE00
FFFE00
1F0000
1F0000
1F0000
1F0000
1F0000
1F0000
1F0000
FFFFE0
FFFFE0
FFFFE0
FFFFE0
ENDCHAR
STARTCHAR C0164
ENCODING 164
SWIDTH 492 0
DWIDTH 21 0
BBX 21 24 0 0
BITMAP
7C01F0
7C01F0
3E03E0
3EFFE0
1FFFC0
0FFF80
1FFFC0
1F8FC0
3F07E0
3E03E0
3E03E0
3E03E0
3E03E0
3E03E0
3F07E0
1F8FC0
1FFFC0
0FFF80
1FFFC0
1FFFC0
3E03E0
7E03F0
7C01F0
7C01F0
ENDCHAR
STARTCHAR C0165
ENCODING 165
SWIDTH 515 0
DWIDTH 22 0
BBX 21 27 0 0
BITMAP
FC01F8
7C01F0
7E03F0
3F07E0
1F07C0
1F8FC0
0F8F80
07DF00
07FF00
03FE00
01FC00
01FC00
00F800
3FFFE0
3FFFE0
3FFFE0
3FFFE0
00F800
00F800
00F800
3FFFE0
3FFFE0
3FFFE0
3FFFE0
00F800
00F800
00F800
ENDCHAR
STARTCHAR C0166
ENCODING 166
SWIDTH 492 0
DWIDTH 21 0
BBX 5 39 8 -8
BITMAP
F8
F8
F8
F8
F8
F8
F8
F8
F8
F8
F8
F8
F8
F8
F8
00
00
00
00
00
00
00
00
F8
F8
F8
F8
F8
F8
F8
F8
F8
F8
F8
F8
F8
F8
F8
F8
ENDCHAR
STARTCHAR C0167
ENCODING 167
SWIDTH 492 0
DWIDTH 21 0
BBX 18 33 2 -4
BITMAP
03F800
0FFE00
1FFE00
1FFE00
3F0600
3E0000
3E0000
3F0000
3F8000
1FF000
0FFC00
3FFF00
7FFF80
7C7F80
F81FC0
F807C0
F807C0
FC07C0
FE07C0
7F8F80
3FFF80
1FFF00
0FFC00
01FE00
007F00
001F00
001F00
301F00
383F00
3FFE00
3FFE00
1FFC00
07E000
ENDCHAR
STARTCHAR C0168
ENCODING 168
SWIDTH 421 0
DWIDTH 18 0
BBX 13 5 2 23
BITMAP
7070
F8F8
F8F8
F8F8
7070
ENDCHAR
STARTCHAR C0169
ENCODING 169
SWIDTH 843 0
DWIDTH 36 0
BBX 29 29 3 0
BITMAP
003FE000
01FFFC00
07FFFF00
0FFFFF80
1FC01FC0
3F0007E0
3E0001E0
7C0FC1F0
783FF0F0
787FF0F8
F0FFF078
F0FC3078
F1F80078
F1F00078
F1F00078
F1F00078
F1F00078
F1F80078
F1F83078
F8FFF0F0
787FF0F0
7C3FF1F0
7C1FC3E0
3F0007E0
1FC01FC0
0FFFFF80
07FFFF00
01FFFC00
003FE000
ENDCHAR
STARTCHAR C0170
ENCODING 170
SWIDTH 421 0
DWIDTH 18 0
BBX 13 21 2 6
BITMAP
1FC0
7FF0
7FF0
60F8
0078
0078
1FF8
7FF8
FFF8
F878
F078
F0F8
FFF8
7FF8
3F38
0000
0000
FFF8
FFF8
FFF8
FFF8
ENDCHAR
STARTCHAR C0171
ENCODING 171
SWIDTH 539 0
DWIDTH 23 0
BBX 18 18 2 2
BITMAP
078180
0F83C0
0F0780
1F0F80
3E0F00
3E1F00
7C3E00
FC7E00
F87C00
F87C00
FC3E00
7C3E00
3E1F00
3E0F00
1F0F80
0F0780
0F83C0
078000
ENDCHAR
STARTCHAR C0172
ENCODING 172
SWIDTH 492 0
DWIDTH 21 0
BBX 19 9 1 5
BITMAP
FFFFE0
FFFFE0
FFFFE0
FFFFE0
0001E0
0001E0
0001E0
0001E0
0001E0
ENDCHAR
STARTCHAR C0173
ENCODING 173
SWIDTH 304 0
DWIDTH 13 0
BBX 11 4 1 8
BITMAP
FFE0
FFE0
FFE0
FFE0
ENDCHAR
STARTCHAR C0174
ENCODING 174
SWIDTH 515 0
DWIDTH 22 0
BBX 16 17 2 13
BITMAP
07E0
1FF8
3C3C
300E
67E6
67F7
C773
C773
C7E3
C7E3
C773
E776
6776
700C
3C3C
1FF8
07E0
ENDCHAR
STARTCHAR C0175
ENCODING 175
SWIDTH 398 0
DWIDTH 17 0
BBX 13 4 2 24
BITMAP
FFF8
FFF8
FFF8
FFF8
ENDCHAR
STARTCHAR C0176
ENCODING 176
SWIDTH 351 0
DWIDTH 15 0
BBX 10 11 2 18
BITMAP
1E00
3F80
7F80
F3C0
E1C0
E1C0
E1C0
F3C0
7F80
7F00
1E00
ENDCHAR
STARTCHAR C0177
ENCODING 177
SWIDTH 492 0
DWIDTH 21 0
BBX 18 26 2 0
BITMAP
01E000
01E000
01E000
01E000
01E000
01E000
01E000
01E000
FFFFC0
FFFFC0
FFFFC0
FFFFC0
01E000
01E000
01E000
01E000
01E000
01E000
01E000
01E000
000000
000000
FFFFC0
FFFFC0
FFFFC0
FFFFC0
ENDCHAR
STARTCHAR C0178
ENCODING 178
SWIDTH 351 0
DWIDTH 15 0
BBX 12 16 1 15
BITMAP
7F00
FFC0
FFE0
C7E0
03E0
03E0
03E0
07C0
0F80
1F80
3F00
3E00
7C00
FFF0
FFF0
FFF0
ENDCHAR
STARTCHAR C0179
ENCODING 179
SWIDTH 328 0
DWIDTH 14 0
BBX 12 16 1 15
BITMAP
3F80
FFC0
FFE0
C3E0
03E0
07E0
3FC0
3F80
3FE0
03F0
01F0
01F0
C3F0
FFE0
FFC0
3F00
ENDCHAR
STARTCHAR C0180
ENCODING 180
SWIDTH 304 0
DWIDTH 13 0
BBX 8 7 2 23
BITMAP
1F
1F
3E
7C
78
F8
F0
ENDCHAR
STARTCHAR C0181
ENCODING 181
SWIDTH 562 0
DWIDTH 24 0
BBX 21 27 3 -7
BITMAP
F80F80
F80F80
F80F80
F80F80
F80F80
F80F80
F80F80
F80F80
F80F80
F80F80
F80F80
F80F80
F80F80
F80F80
F81F80
FC3F80
FFFFF8
FFF7F8
FFE7F8
FFC1F0
F80000
F80000
F80000
F80000
F80000
F80000
F80000
ENDCHAR
STARTCHAR C0182
ENCODING 182
SWIDTH 609 0
DWIDTH 26 0
BBX 21 32 2 -5
BITMAP
03FFF8
0FFFF8
3FFFF8
3FFFF8
7FF878
7FF878
FFF878
FFF878
FFF878
FFF878
FFF878
FFF878
7FF878
7FF878
3FF878
1FF878
07F878
007878
007878
007878
007878
007878
007878
007878
007878
007878
007878
007878
007878
007878
007878
007878
ENDCHAR
STARTCHAR C0183
ENCODING 183
SWIDTH 281 0
DWIDTH 12 0
BBX 6 7 3 9
BITMAP
78
FC
FC
FC
FC
FC
78
ENDCHAR
STARTCHAR C0184
ENCODING 184
SWIDTH 304 0
DWIDTH 13 0
BBX 9 7 2 -7
BITMAP
0E00
0700
0780
FF80
FF80
FF00
7E00
ENDCHAR
STARTCHAR C0185
ENCODING 185
SWIDTH 257 0
DWIDTH 11 0
BBX 8 16 0 15
BITMAP
0F
3F
FF
FF
EF
0F
0F
0F
0F
0F
0F
0F
0F
0F
0F
0F
ENDCHAR
STARTCHAR C0186
ENCODING 186
SWIDTH 445 0
DWIDTH 19 0
BBX 15 21 2 6
BITMAP
0FE0
1FF8
3FFC
7FFC
FC7E
F83E
F83E
F83E
F83E
F83E
FC7E
7FFC
7FF8
3FF0
0FE0
0000
0000
7FFC
7FFC
7FFC
7FFC
ENDCHAR
STARTCHAR C0187
ENCODING 187
SWIDTH 539 0
DWIDTH 23 0
BBX 18 18 3 2
BITMAP
007800
F07C00
783C00
7C3E00
3C1F00
3E1F00
1F0F80
1F8FC0
0F87C0
0F87C0
1F8FC0
1F0F80
3E1F00
3E1F00
7C3E00
783C00
F07C00
607800
ENDCHAR
STARTCHAR C0188
ENCODING 188
SWIDTH 656 0
DWIDTH 28 0
BBX 27 29 0 -1
BITMAP
0F000780
3F000780
FF000F00
FF001E00
EF003E00
0F003C00
0F007800
0F00F800
0F00F000
0F01E000
0F03C000
0F07C000
0F078000
0F0F0000
001F1F80
001E3F80
003C3F80
007C7F80
0078F780
00F1E780
01E1C780
03E38780
03C3FFE0
0783FFE0
0F83FFE0
0F000780
1E000780
3C000780
3C000000
ENDCHAR
STARTCHAR C0189
ENCODING 189
SWIDTH 703 0
DWIDTH 30 0
BBX 28 29 0 -1
BITMAP
0F000780
3F000780
FF000F00
FF001E00
EF003E00
0F003C00
0F007800
0F00F800
0F00F000
0F01E000
0F03C000
0F07C000
0F078000
0F0F0000
001F1F80
001E7FC0
003C7FE0
007C63E0
007803E0
00F003E0
01E007C0
03E00FC0
03C01F80
07803F00
0F803E00
0F007FF0
1E007FF0
3C007FF0
3C000000
ENDCHAR
STARTCHAR C0190
ENCODING 190
SWIDTH 703 0
DWIDTH 30 0
BBX 27 29 2 -1
BITMAP
3F800780
FFC00780
FFE00F00
C3E01E00
03E03E00
3FC03C00
3F807800
3FE0F800
01F0F000
01F1E000
C3F3C000
FFF7C000
FFE78000
3F8F0000
001F1F80
001E3F80
003C3F80
007C7F80
0078F780
00F1E780
01E1C780
03E38780
03C3FFE0
0783FFE0
0F83FFE0
0F000780
1E000780
3C000780
3C000000
ENDCHAR
STARTCHAR C0191
ENCODING 191
SWIDTH 468 0
DWIDTH 20 0
BBX 16 29 2 -4
BITMAP
01E0
03F0
03F0
03F0
03F0
01E0
0000
0000
01F0
01F0
01F0
01F0
01F0
07F0
1FF0
3FF0
7E00
7C00
F800
F800
F800
F800
F800
FC00
7E03
7FFF
3FFF
1FFF
03F8
ENDCHAR
STARTCHAR C0192
ENCODING 192
SWIDTH 609 0
DWIDTH 26 0
BBX 25 35 0 0
BITMAP
03E00000
03F00000
01F80000
007C0000
003E0000
001E0000
00000000
00000000
007F0000
007F8000
00FF8000
00FF8000
00FFC000
01F7C000
01F7C000
01F7E000
03E3E000
03E3E000
03E3F000
07C1F000
07C1F000
07C1F800
0F81F800
0F80F800
0F80FC00
1FFFFC00
1FFFFC00
1FFFFE00
3FFFFE00
3E003E00
3E003F00
7E003F00
7C003F00
7C001F80
FC001F80
ENDCHAR
STARTCHAR C0193
ENCODING 193
SWIDTH 609 0
DWIDTH 26 0
BBX 25 35 0 0
BITMAP
0003E000
0007E000
000FC000
001F0000
003E0000
003C0000
00000000
00000000
007F0000
007F8000
00FF8000
00FF8000
00FFC000
01F7C000
01F7C000
01F7E000
03E3E000
03E3E000
03E3F000
07C1F000
07C1F000
07C1F800
0F81F800
0F80F800
0F80FC00
1FFFFC00
1FFFFC00
1FFFFE00
3FFFFE00
3E003E00
3E003F00
7E003F00
7C003F00
7C001F80
FC001F80
ENDCHAR
STARTCHAR C0194
ENCODING 194
SWIDTH 609 0
DWIDTH 26 0
BBX 25 35 0 0
BITMAP
003E0000
007F0000
00FF8000
01F7C000
03E3E000
07C1F000
00000000
00000000
007F0000
007F8000
00FF8000
00FF8000
00FFC000
01F7C000
01F7C000
01F7E000
03E3E000
03E3E000
03E3F000
07C1F000
07C1F000
07C1F800
0F81F800
0F80F800
0F80FC00
1FFFFC00
1FFFFC00
1FFFFE00
3FFFFE00
3E003E00
3E003F00
7E003F00
7C003F00
7C001F80
FC001F80
ENDCHAR
STARTCHAR C0195
ENCODING 195
SWIDTH 609 0
DWIDTH 26 0
BBX 25 35 0 0
BITMAP
01F07000
03FC7000
07FFF000
07FFF000
071FE000
0707C000
00000000
00000000
007F0000
007F8000
00FF8000
00FF8000
00FFC000
01F7C000
01F7C000
01F7E000
03E3E000
03E3E000
03E3F000
07C1F000
07C1F000
07C1F800
0F81F800
0F80F800
0F80FC00
1FFFFC00
1FFFFC00
1FFFFE00
3FFFFE00
3E003E00
3E003F00
7E003F00
7C003F00
7C001F80
FC001F80
ENDCHAR
STARTCHAR C0196
ENCODING 196
SWIDTH 609 0
DWIDTH 26 0
BBX 25 34 0 0
BITMAP
00E07000
01F0F800
01F0F800
01F0F800
00E07000
00000000
00000000
007F0000
007F8000
00FF8000
00FF8000
00FFC000
01F7C000
01F7C000
01F7E000
03E3E000
03E3E000
03E3F000
07C1F000
07C1F000
07C1F800
0F81F800
0F80F800
0F80FC00
1FFFFC00
1FFFFC00
1FFFFE00
3FFFFE00
3E003E00
3E003F00
7E003F00
7C003F00
7C001F80
FC001F80
ENDCHAR
STARTCHAR C0197
ENCODING 197
SWIDTH 609 0
DWIDTH 26 0
BBX 25 36 0 0
BITMAP
001E0000
003F0000
00738000
00618000
00618000
00638000
003F0000
001E0000
00000000
007F0000
007F8000
00FF8000
00FF8000
00FFC000
01F7C000
01F7C000
01F7E000
03E3E000
03E3E000
03E3F000
07C1F000
07C1F000
07C1F800
0F81F800
0F80F800
0F80FC00
1FFFFC00
1FFFFC00
1FFFFE00
3FFFFE00
3E003E00
3E003F00
7E003F00
7C003F00
7C001F80
FC001F80
ENDCHAR
STARTCHAR C0198
ENCODING 198
SWIDTH 773 0
DWIDTH 33 0
BBX 32 27 -1 0
BITMAP
000FFFFF
000FFFFF
001FFFFF
001FFFFF
003EF800
003EF800
007CF800
007CF800
00F8F800
00F8F800
01F8F800
01F0FFFC
03F0FFFC
03E0FFFC
07E0FFFC
07C0F800
0FC0F800
0FFFF800
0FFFF800
1FFFF800
1FFFF800
3F00F800
3E00F800
7E00FFFF
7C00FFFF
FC00FFFF
F800FFFF
ENDCHAR
STARTCHAR C0199
ENCODING 199
SWIDTH 539 0
DWIDTH 23 0
BBX 20 35 2 -8
BITMAP
007F00
03FFE0
07FFF0
0FFFF0
1FC0F0
3F8030
3F0000
7E0000
7E0000
FC0000
FC0000
FC0000
FC0000
FC0000
FC0000
FC0000
FC0000
FC0000
7E0000
7E0000
7F0000
3F8030
3FC0F0
1FFFF0
0FFFF0
07FFE0
00FF80
003C00
001E00
001E00
001E00
03FE00
03FE00
03FC00
01F800
ENDCHAR
STARTCHAR C0200
ENCODING 200
SWIDTH 492 0
DWIDTH 21 0
BBX 16 35 3 0
BITMAP
7C00
7E00
3F00
0F80
07C0
03C0
0000
0000
FFFF
FFFF
FFFF
FFFF
F800
F800
F800
F800
F800
F800
F800
FFFC
FFFC
FFFC
FFFC
F800
F800
F800
F800
F800
F800
F800
F800
FFFF
FFFF
FFFF
FFFF
ENDCHAR
STARTCHAR C0201
ENCODING 201
SWIDTH 492 0
DWIDTH 21 0
BBX 16 35 3 0
BITMAP
007C
00FC
01F8
03E0
07C0
0780
0000
0000
FFFF
FFFF
FFFF
FFFF
F800
F800
F800
F800
F800
F800
F800
FFFC
FFFC
FFFC
FFFC
F800
F800
F800
F800
F800
F800
F800
F800
FFFF
FFFF
FFFF
FFFF
ENDCHAR
STARTCHAR C0202
ENCODING 202
SWIDTH 492 0
DWIDTH 21 0
BBX 16 35 3 0
BITMAP
07C0
0FE0
1FF0
3EF8
7C7C
F83E
0000
0000
FFFF
FFFF
FFFF
FFFF
F800
F800
F800
F800
F800
F800
F800
FFFC
FFFC
FFFC
FFFC
F800
F800
F800
F800
F800
F800
F800
F800
FFFF
FFFF
FFFF
FFFF
ENDCHAR
STARTCHAR C0203
ENCODING 203
SWIDTH 492 0
DWIDTH 21 0
BBX 16 34 3 0
BITMAP
1C0E
3E1F
3E1F
3E1F
1C0E
0000
0000
FFFF
FFFF
FFFF
FFFF
F800
F800
F800
F800
F800
F800
F800
FFFC
FFFC
FFFC
FFFC
F800
F800
F800
F800
F800
F800
F800
F800
FFFF
FFFF
FFFF
FFFF
ENDCHAR
STARTCHAR C0204
ENCODING 204
SWIDTH 257 0
DWIDTH 11 0
BBX 10 35 -1 0
BITMAP
7C00
7E00
3F00
0F80
07C0
03C0
0000
0000
0F80
0F80
0F80
0F80
0F80
0F80
0F80
0F80
0F80
0F80
0F80
0F80
0F80
0F80
0F80
0F80
0F80
0F80
0F80
0F80
0F80
0F80
0F80
0F80
0F80
0F80
0F80
ENDCHAR
STARTCHAR C0205
ENCODING 205
SWIDTH 257 0
DWIDTH 11 0
BBX 10 35 3 0
BITMAP
0F80
1F80
3F00
7C00
F800
F000
0000
0000
F800
F800
F800
F800
F800
F800
F800
F800
F800
F800
F800
F800
F800
F800
F800
F800
F800
F800
F800
F800
F800
F800
F800
F800
F800
F800
F800
ENDCHAR
STARTCHAR C0206
ENCODING 206
SWIDTH 257 0
DWIDTH 11 0
BBX 15 35 -2 0
BITMAP
07C0
0FE0
1FF0
3EF8
7C7C
F83E
0000
0000
07C0
07C0
07C0
07C0
07C0
07C0
07C0
07C0
07C0
07C0
07C0
07C0
07C0
07C0
07C0
07C0
07C0
07C0
07C0
07C0
07C0
07C0
07C0
07C0
07C0
07C0
07C0
ENDCHAR
STARTCHAR C0207
ENCODING 207
SWIDTH 257 0
DWIDTH 11 0
BBX 14 34 -1 0
BITMAP
7038
F87C
F87C
F87C
7038
0000
0000
0F80
0F80
0F80
0F80
0F80
0F80
0F80
0F80
0F80
0F80
0F80
0F80
0F80
0F80
0F80
0F80
0F80
0F80
0F80
0F80
0F80
0F80
0F80
0F80
0F80
0F80
0F80
ENDCHAR
STARTCHAR C0208
ENCODING 208
SWIDTH 632 0
DWIDTH 27 0
BBX 26 27 0 0
BITMAP
1FFF8000
1FFFF000
1FFFF800
1FFFFE00
1F01FE00
1F007F00
1F001F80
1F001F80
1F000F80
1F000FC0
1F0007C0
FFFC07C0
FFFC07C0
FFFC07C0
FFFC07C0
1F0007C0
1F0007C0
1F000FC0
1F000F80
1F001F80
1F001F80
1F003F00
1F01FE00
1FFFFC00
1FFFF800
1FFFF000
1FFF8000
ENDCHAR
STARTCHAR C0209
ENCODING 209
SWIDTH 656 0
DWIDTH 28 0
BBX 22 35 3 0
BITMAP
03E0E0
07F8E0
0FFFE0
0FFFE0
0E3FC0
0E0F80
000000
000000
7E007C
FF007C
FF807C
FF807C
FFC07C
FFC07C
FBC07C
FBE07C
FBE07C
F9F07C
F9F07C
F8F87C
F8F87C
F87C7C
F87C7C
F83C7C
F83E7C
F81E7C
F81F7C
F80F7C
F80FFC
F807FC
F807FC
F803FC
F803FC
F801FC
F800F8
ENDCHAR
STARTCHAR C0210
ENCODING 210
SWIDTH 679 0
DWIDTH 29 0
BBX 26 35 2 0
BITMAP
03E00000
03F00000
01F80000
007C0000
003E0000
001E0000
00000000
00000000
007FC000
03FFF000
07FFFC00
0FFFFE00
1FC0FF00
3F803F00
7F003F80
7E001F80
7E001FC0
FC000FC0
FC000FC0
FC000FC0
FC000FC0
FC000FC0
FC000FC0
FC000FC0
FC000FC0
FC000FC0
FE001F80
7E001F80
7F003F80
3F007F00
3FC0FE00
1FFFFC00
0FFFF800
03FFF000
00FF8000
ENDCHAR
STARTCHAR C0211
ENCODING 211
SWIDTH 679 0
DWIDTH 29 0
BBX 26 35 2 0
BITMAP
0003E000
0007E000
000FC000
001F0000
003E0000
003C0000
00000000
00000000
007FC000
03FFF000
07FFFC00
0FFFFE00
1FC0FF00
3F803F00
7F003F80
7E001F80
7E001FC0
FC000FC0
FC000FC0
FC000FC0
FC000FC0
FC000FC0
FC000FC0
FC000FC0
FC000FC0
FC000FC0
FE001F80
7E001F80
7F003F80
3F007F00
3FC0FE00
1FFFFC00
0FFFF800
03FFF000
00FF8000
ENDCHAR
STARTCHAR C0212
ENCODING 212
SWIDTH 679 0
DWIDTH 29 0
BBX 26 35 2 0
BITMAP
003E0000
007F0000
00FF8000
01F7C000
03E3E000
07C1F000
00000000
00000000
007FC000
03FFF000
07FFFC00
0FFFFE00
1FC0FF00
3F803F00
7F003F80
7E001F80
7E001FC0
FC000FC0
FC000FC0
FC000FC0
FC000FC0
FC000FC0
FC000FC0
FC000FC0
FC000FC0
FC000FC0
FE001F80
7E001F80
7F003F80
3F007F00
3FC0FE00
1FFFFC00
0FFFF800
03FFF000
00FF8000
ENDCHAR
STARTCHAR C0213
ENCODING 213
SWIDTH 679 0
DWIDTH 29 0
BBX 26 35 2 0
BITMAP
01F07000
03FC7000
07FFF000
07FFF000
071FE000
0707C000
00000000
00000000
007FC000
03FFF000
07FFFC00
0FFFFE00
1FC0FF00
3F803F00
7F003F80
7E001F80
7E001FC0
FC000FC0
FC000FC0
FC000FC0
FC000FC0
FC000FC0
FC000FC0
FC000FC0
FC000FC0
FC000FC0
FE001F80
7E001F80
7F003F80
3F007F00
3FC0FE00
1FFFFC00
0FFFF800
03FFF000
00FF8000
ENDCHAR
STARTCHAR C0214
ENCODING 214
SWIDTH 679 0
DWIDTH 29 0
BBX 26 34 2 0
BITMAP
01C0E000
03E1F000
03E1F000
03E1F000
01C0E000
00000000
00000000
007FC000
03FFF000
07FFFC00
0FFFFE00
1FC0FF00
3F803F00
7F003F80
7E001F80
7E001FC0
FC000FC0
FC000FC0
FC000FC0
FC000FC0
FC000FC0
FC000FC0
FC000FC0
FC000FC0
FC000FC0
FE001F80
7E001F80
7F003F80
3F007F00
3FC0FE00
1FFFFC00
0FFFF800
03FFF000
00FF8000
ENDCHAR
STARTCHAR C0215
ENCODING 215
SWIDTH 492 0
DWIDTH 21 0
BBX 18 18 2 3
BITMAP
600180
F003C0
F807C0
7C0F80
3E1F00
1F3E00
0FFC00
07F800
03F000
03F000
07F800
0FFC00
1F3E00
3E1F00
7C0F80
F807C0
F003C0
600180
ENDCHAR
STARTCHAR C0216
ENCODING 216
SWIDTH 679 0
DWIDTH 29 0
BBX 26 35 2 -4
BITMAP
00001F00
00001F00
00003E00
00003E00
007FFC00
03FFFC00
07FFFC00
0FFFFE00
1FC1FF00
3F01FF00
7E03FF80
7C03EF80
7C07CFC0
F807C7C0
F80F87C0
F80F87C0
F81F07C0
F81F07C0
F83E07C0
F83E07C0
F87C07C0
F87C07C0
FCF80F80
7CF80F80
7FF01F80
3FF03F00
3FE0FE00
1FFFFC00
0FFFF800
0FFFF000
0FFF8000
1F000000
1F000000
3E000000
3E000000
ENDCHAR
STARTCHAR C0217
ENCODING 217
SWIDTH 656 0
DWIDTH 28 0
BBX 22 35 3 0
BITMAP
0F8000
0FC000
07E000
01F000
00F800
007800
000000
000000
F8007C
F8007C
F8007C
F8007C
F8007C
F8007C
F8007C
F8007C
F8007C
F8007C
F8007C
F8007C
F8007C
F8007C
F8007C
F8007C
F8007C
F8007C
F8007C
F8007C
FC00F8
7E01F8
7F03F8
3FFFF0
1FFFE0
0FFF80
01FE00
ENDCHAR
STARTCHAR C0218
ENCODING 218
SWIDTH 656 0
DWIDTH 28 0
BBX 22 35 3 0
BITMAP
000F80
001F80
003F00
007C00
00F800
00F000
000000
000000
F8007C
F8007C
F8007C
F8007C
F8007C
F8007C
F8007C
F8007C
F8007C
F8007C
F8007C
F8007C
F8007C
F8007C
F8007C
F8007C
F8007C
F8007C
F8007C
F8007C
FC00F8
7E01F8
7F03F8
3FFFF0
1FFFE0
0FFF80
01FE00
ENDCHAR
STARTCHAR C0219
ENCODING 219
SWIDTH 656 0
DWIDTH 28 0
BBX 22 35 3 0
BITMAP
00F800
01FC00
03FE00
07DF00
0F8F80
1F07C0
000000
000000
F8007C
F8007C
F8007C
F8007C
F8007C
F8007C
F8007C
F8007C
F8007C
F8007C
F8007C
F8007C
F8007C
F8007C
F8007C
F8007C
F8007C
F8007C
F8007C
F8007C
FC00F8
7E01F8
7F03F8
3FFFF0
1FFFE0
0FFF80
01FE00
ENDCHAR
STARTCHAR C0220
ENCODING 220
SWIDTH 656 0
DWIDTH 28 0
BBX 22 34 3 0
BITMAP
0381C0
07C3E0
07C3E0
07C3E0
0381C0
000000
000000
F8007C
F8007C
F8007C
F8007C
F8007C
F8007C
F8007C
F8007C
F8007C
F8007C
F8007C
F8007C
F8007C
F8007C
F8007C
F8007C
F8007C
F8007C
F8007C
F8007C
FC00F8
7E01F8
7F03F8
3FFFF0
1FFFE0
0FFF80
01FE00
ENDCHAR
STARTCHAR C0221
ENCODING 221
SWIDTH 515 0
DWIDTH 22 0
BBX 21 35 0 0
BITMAP
0007C0
000FC0
001F80
003E00
007C00
007800
000000
000000
FC01F8
7C01F0
7E03F0
3E03E0
3F03E0
1F07C0
1F07C0
0F8F80
0F8F80
07DF00
07DF00
07FF00
03FE00
03FE00
01FC00
01FC00
00F800
00F800
00F800
00F800
00F800
00F800
00F800
00F800
00F800
00F800
00F800
ENDCHAR
STARTCHAR C0222
ENCODING 222
SWIDTH 539 0
DWIDTH 23 0
BBX 19 27 3 0
BITMAP
F80000
F80000
F80000
F80000
F80000
FFF800
FFFE00
FFFF80
FFFFC0
F81FC0
F80FE0
F807E0
F807E0
F807E0
F807E0
F807E0
F80FC0
F81FC0
FFFF80
FFFF00
FFFE00
FFF000
F80000
F80000
F80000
F80000
F80000
ENDCHAR
STARTCHAR C0223
ENCODING 223
SWIDTH 562 0
DWIDTH 24 0
BBX 20 29 3 0
BITMAP
03F800
0FFE00
3FFF00
7FFF80
7E1FC0
7C07C0
F807C0
F807C0
F807C0
F81FC0
F83F80
F87F80
F8FC00
F8F800
F8F800
F8FC00
F8FE00
F87F80
F83FC0
F81FE0
F807F0
F803F0
F801F0
F801F0
F8C3F0
F8FFE0
F8FFE0
F8FFC0
F87F00
ENDCHAR
STARTCHAR C0224
ENCODING 224
SWIDTH 492 0
DWIDTH 21 0
BBX 17 30 1 0
BITMAP
1F0000
1F0000
0F8000
07C000
03C000
03E000
01E000
000000
000000
000000
07F800
1FFE00
7FFF00
7FFF00
781F80
600F80
000F80
000F80
07FF80
1FFF80
7FFF80
7FFF80
FC0F80
F80F80
F80F80
FC3F80
FFFF80
7FFF80
3FF780
0FC780
ENDCHAR
STARTCHAR C0225
ENCODING 225
SWIDTH 492 0
DWIDTH 21 0
BBX 17 30 1 0
BITMAP
003E00
003E00
007C00
00F800
00F000
01F000
01E000
000000
000000
000000
07F800
1FFE00
7FFF00
7FFF00
781F80
600F80
000F80
000F80
07FF80
1FFF80
7FFF80
7FFF80
FC0F80
F80F80
F80F80
FC3F80
FFFF80
7FFF80
3FF780
0FC780
ENDCHAR
STARTCHAR C0226
ENCODING 226
SWIDTH 492 0
DWIDTH 21 0
BBX 17 30 1 0
BITMAP
01F000
03F800
03F800
07BC00
0FBE00
0F1E00
1E0F00
000000
000000
000000
07F800
1FFE00
7FFF00
7FFF00
781F80
600F80
000F80
000F80
07FF80
1FFF80
7FFF80
7FFF80
FC0F80
F80F80
F80F80
FC3F80
FFFF80
7FFF80
3FF780
0FC780
ENDCHAR
STARTCHAR C0227
ENCODING 227
SWIDTH 492 0
DWIDTH 21 0
BBX 17 29 1 0
BITMAP
0F8380
1FE380
3FFF80
3FFF80
38FF00
383E00
000000
000000
000000
07F800
1FFE00
7FFF00
7FFF00
781F80
600F80
000F80
000F80
07FF80
1FFF80
7FFF80
7FFF80
FC0F80
F80F80
F80F80
FC3F80
FFFF80
7FFF80
3FF780
0FC780
ENDCHAR
STARTCHAR C0228
ENCODING 228
SWIDTH 492 0
DWIDTH 21 0
BBX 17 28 1 0
BITMAP
0E0E00
1F1F00
1F1F00
1F1F00
0E0E00
000000
000000
000000
07F800
1FFE00
7FFF00
7FFF00
781F80
600F80
000F80
000F80
07FF80
1FFF80
7FFF80
7FFF80
FC0F80
F80F80
F80F80
FC3F80
FFFF80
7FFF80
3FF780
0FC780
ENDCHAR
STARTCHAR C0229
ENCODING 229
SWIDTH 492 0
DWIDTH 21 0
BBX 17 30 1 0
BITMAP
00F000
01F800
039C00
030C00
030C00
039C00
01F800
00F000
000000
000000
07F800
1FFE00
7FFF00
7FFF00
781F80
600F80
000F80
000F80
07FF80
1FFF80
7FFF80
7FFF80
FC0F80
F80F80
F80F80
FC3F80
FFFF80
7FFF80
3FF780
0FC780
ENDCHAR
STARTCHAR C0230
ENCODING 230
SWIDTH 773 0
DWIDTH 33 0
BBX 30 20 1 0
BITMAP
07F03F80
1FFCFFE0
7FFFFFF0
7FFFFFF8
781FE0F8
600FC07C
000F807C
03FFFFFC
1FFFFFFC
3FFFFFFC
7FFFFFFC
FE0F8000
F80F8000
F80F8000
F80FC000
FC3FE038
7FFFFFF8
7FFBFFF8
3FF0FFF8
0FC03FE0
ENDCHAR
STARTCHAR C0231
ENCODING 231
SWIDTH 421 0
DWIDTH 18 0
BBX 15 27 2 -7
BITMAP
03F0
0FFC
1FFE
3FFE
7E0E
7C06
FC00
F800
F800
F800
F800
F800
F800
FC00
7C06
7E0E
7FFE
3FFE
1FFC
07F0
03C0
01E0
01E0
3FE0
3FE0
3FC0
1F80
ENDCHAR
STARTCHAR C0232
ENCODING 232
SWIDTH 515 0
DWIDTH 22 0
BBX 18 30 2 0
BITMAP
3E0000
3E0000
1F0000
0F8000
078000
07C000
03C000
000000
000000
000000
03F800
0FFE00
1FFF00
3FFF80
7E0F80
7C07C0
F807C0
FFFFC0
FFFFC0
FFFFC0
FFFFC0
F80000
F80000
F80000
7C0000
7E0380
3FFF80
3FFF80
0FFF80
03FE00
ENDCHAR
STARTCHAR C0233
ENCODING 233
SWIDTH 515 0
DWIDTH 22 0
BBX 18 30 2 0
BITMAP
007C00
007C00
00F800
01F000
01E000
03E000
03C000
000000
000000
000000
03F800
0FFE00
1FFF00
3FFF80
7E0F80
7C07C0
F807C0
FFFFC0
FFFFC0
FFFFC0
FFFFC0
F80000
F80000
F80000
7C0000
7E0380
3FFF80
3FFF80
0FFF80
03FE00
ENDCHAR
STARTCHAR C0234
ENCODING 234
SWIDTH 515 0
DWIDTH 22 0
BBX 18 30 2 0
BITMAP
03E000
07F000
07F000
0F7800
1F7C00
1E3C00
3C1E00
000000
000000
000000
03F800
0FFE00
1FFF00
3FFF80
7E0F80
7C07C0
F807C0
FFFFC0
FFFFC0
FFFFC0
FFFFC0
F80000
F80000
F80000
7C0000
7E0380
3FFF80
3FFF80
0FFF80
03FE00
ENDCHAR
STARTCHAR C0235
ENCODING 235
SWIDTH 515 0
DWIDTH 22 0
BBX 18 28 2 0
BITMAP
1C1C00
3E3E00
3E3E00
3E3E00
1C1C00
000000
000000
000000
03F800
0FFE00
1FFF00
3FFF80
7E0F80
7C07C0
F807C0
FFFFC0
FFFFC0
FFFFC0
FFFFC0
F80000
F80000
F80000
7C0000
7E0380
3FFF80
3FFF80
0FFF80
03FE00
ENDCHAR
STARTCHAR C0236
ENCODING 236
SWIDTH 257 0
DWIDTH 11 0
BBX 9 30 -1 0
BITMAP
F800
F800
7C00
3E00
1E00
1F00
0F00
0000
0000
0000
0F80
0F80
0F80
0F80
0F80
0F80
0F80
0F80
0F80
0F80
0F80
0F80
0F80
0F80
0F80
0F80
0F80
0F80
0F80
0F80
ENDCHAR
STARTCHAR C0237
ENCODING 237
SWIDTH 257 0
DWIDTH 11 0
BBX 8 30 3 0
BITMAP
1F
1F
3E
7C
78
F8
F0
00
00
00
F8
F8
F8
F8
F8
F8
F8
F8
F8
F8
F8
F8
F8
F8
F8
F8
F8
F8
F8
F8
ENDCHAR
STARTCHAR C0238
ENCODING 238
SWIDTH 257 0
DWIDTH 11 0
BBX 13 30 -1 0
BITMAP
0F80
1FC0
1FC0
3DE0
7DF0
78F0
F078
0000
0000
0000
0F80
0F80
0F80
0F80
0F80
0F80
0F80
0F80
0F80
0F80
0F80
0F80
0F80
0F80
0F80
0F80
0F80
0F80
0F80
0F80
ENDCHAR
STARTCHAR C0239
ENCODING 239
SWIDTH 257 0
DWIDTH 11 0
BBX 12 28 -1 0
BITMAP
70E0
F9F0
F9F0
F9F0
70E0
0000
0000
0000
0F80
0F80
0F80
0F80
0F80
0F80
0F80
0F80
0F80
0F80
0F80
0F80
0F80
0F80
0F80
0F80
0F80
0F80
0F80
0F80
ENDCHAR
STARTCHAR C0240
ENCODING 240
SWIDTH 539 0
DWIDTH 23 0
BBX 19 29 2 0
BITMAP
03F000
03F0E0
01FFE0
01FFE0
0FFF00
0FFF00
0E1F00
000F80
000F80
07E7C0
1FFFC0
3FFFC0
3FFFE0
7E1FE0
7C07E0
FC03E0
F803E0
F803E0
F803E0
F803E0
F803E0
F803E0
FC07C0
7C07C0
7E1F80
7FFF80
3FFF00
1FFE00
07F800
ENDCHAR
STARTCHAR C0241
ENCODING 241
SWIDTH 539 0
DWIDTH 23 0
BBX 18 29 3 0
BITMAP
1F0700
3FC700
7FFF00
7FFF00
71FE00
707C00
000000
000000
000000
F0FC00
F3FF00
F7FF80
FFFF80
FF1FC0
FC0FC0
F807C0
F807C0
F807C0
F807C0
F807C0
F807C0
F807C0
F807C0
F807C0
F807C0
F807C0
F807C0
F807C0
F807C0
ENDCHAR
STARTCHAR C0242
ENCODING 242
SWIDTH 539 0
DWIDTH 23 0
BBX 20 30 2 0
BITMAP
1F0000
1F0000
0F8000
07C000
03C000
03E000
01E000
000000
000000
000000
03FC00
0FFF00
1FFFC0
3FFFC0
7F07E0
7C03E0
FC03F0
F801F0
F801F0
F801F0
F801F0
F801F0
F801F0
FC03F0
7C03E0
7E0FE0
3FFFC0
3FFF80
0FFF00
03FC00
ENDCHAR
STARTCHAR C0243
ENCODING 243
SWIDTH 539 0
DWIDTH 23 0
BBX 20 30 2 0
BITMAP
003E00
003E00
007C00
00F800
00F000
01F000
01E000
000000
000000
000000
03FC00
0FFF00
1FFFC0
3FFFC0
7F07E0
7C03E0
FC03F0
F801F0
F801F0
F801F0
F801F0
F801F0
F801F0
FC03F0
7C03E0
7E0FE0
3FFFC0
3FFF80
0FFF00
03FC00
ENDCHAR
STARTCHAR C0244
ENCODING 244
SWIDTH 539 0
DWIDTH 23 0
BBX 20 30 2 0
BITMAP
01F000
03F800
03F800
07BC00
0FBE00
0F1E00
1E0F00
000000
000000
000000
03FC00
0FFF00
1FFFC0
3FFFC0
7F07E0
7C03E0
FC03F0
F801F0
F801F0
F801F0
F801F0
F801F0
F801F0
FC03F0
7C03E0
7E0FE0
3FFFC0
3FFF80
0FFF00
03FC00
ENDCHAR
STARTCHAR C0245
ENCODING 245
SWIDTH 539 0
DWIDTH 23 0
BBX 20 29 2 0
BITMAP
0F8380
1FE380
3FFF80
3FFF80
38FF00
383E00
000000
000000
000000
03FC00
0FFF00
1FFFC0
3FFFC0
7F07E0
7C03E0
FC03F0
F801F0
F801F0
F801F0
F801F0
F801F0
F801F0
FC03F0
7C03E0
7E0FE0
3FFFC0
3FFF80
0FFF00
03FC00
ENDCHAR
STARTCHAR C0246
ENCODING 246
SWIDTH 539 0
DWIDTH 23 0
BBX 20 28 2 0
BITMAP
0E0E00
1F1F00
1F1F00
1F1F00
0E0E00
000000
000000
000000
03FC00
0FFF00
1FFFC0
3FFFC0
7F07E0
7C03E0
FC03F0
F801F0
F801F0
F801F0
F801F0
F801F0
F801F0
FC03F0
7C03E0
7E0FE0
3FFFC0
3FFF80
0FFF00
03FC00
ENDCHAR
STARTCHAR C0247
ENCODING 247
SWIDTH 492 0
DWIDTH 21 0
BBX 20 22 1 1
BITMAP
00F000
01F800
01F800
01F800
01F800
00F000
000000
000000
000000
FFFFF0
FFFFF0
FFFFF0
FFFFF0
000000
000000
000000
00F000
01F800
01F800
01F800
01F800
00F000
ENDCHAR
STARTCHAR C0248
ENCODING 248
SWIDTH 539 0
DWIDTH 23 0
BBX 20 26 2 -3
BITMAP
0003C0
0003C0
000780
03FF80
0FFF00
1FFFC0
3FFFC0
7F1FE0
7C3FE0
FC3FF0
F879F0
F879F0
F8F1F0
F8F1F0
F9E1F0
F9E1F0
FFC3F0
7FC3E0
7F8FE0
3FFFC0
3FFF80
0FFF00
1FFC00
1E0000
3C0000
3C0000
ENDCHAR
STARTCHAR C0249
ENCODING 249
SWIDTH 539 0
DWIDTH 23 0
BBX 18 30 3 0
BITMAP
3E0000
3E0000
1F0000
0F8000
078000
07C000
03C000
000000
000000
000000
F807C0
F807C0
F807C0
F807C0
F807C0
F807C0
F807C0
F807C0
F807C0
F807C0
F807C0
F807C0
F807C0
F807C0
FC0FC0
FE3FC0
7FFFC0
7FFBC0
3FF3C0
0FC3C0
ENDCHAR
STARTCHAR C0250
ENCODING 250
SWIDTH 539 0
DWIDTH 23 0
BBX 18 30 3 0
BITMAP
007C00
007C00
00F800
01F000
01E000
03E000
03C000
000000
000000
000000
F807C0
F807C0
F807C0
F807C0
F807C0
F807C0
F807C0
F807C0
F807C0
F807C0
F807C0
F807C0
F807C0
F807C0
FC0FC0
FE3FC0
7FFFC0
7FFBC0
3FF3C0
0FC3C0
ENDCHAR
STARTCHAR C0251
ENCODING 251
SWIDTH 539 0
DWIDTH 23 0
BBX 18 30 3 0
BITMAP
03E000
07F000
07F000
0F7800
1F7C00
1E3C00
3C1E00
000000
000000
000000
F807C0
F807C0
F807C0
F807C0
F807C0
F807C0
F807C0
F807C0
F807C0
F807C0
F807C0
F807C0
F807C0
F807C0
FC0FC0
FE3FC0
7FFFC0
7FFBC0
3FF3C0
0FC3C0
ENDCHAR
STARTCHAR C0252
ENCODING 252
SWIDTH 539 0
DWIDTH 23 0
BBX 18 28 3 0
BITMAP
1C1C00
3E3E00
3E3E00
3E3E00
1C1C00
000000
000000
000000
F807C0
F807C0
F807C0
F807C0
F807C0
F807C0
F807C0
F807C0
F807C0
F807C0
F807C0
F807C0
F807C0
F807C0
FC0FC0
FE3FC0
7FFFC0
7FFBC0
3FF3C0
0FC3C0
ENDCHAR
STARTCHAR C0253
ENCODING 253
SWIDTH 468 0
DWIDTH 20 0
BBX 20 37 0 -7
BITMAP
001F00
001F00
003E00
007C00
007800
00F800
00F000
000000
000000
000000
F801F0
FC03F0
7C03E0
7C03E0
7E07E0
3E07C0
3F07C0
1F0FC0
1F0F80
1F8F80
0F8F80
0FDF00
07DF00
07DF00
07FE00
03FE00
03FE00
03FC00
01FC00
01FC00
00F800
01F800
01F000
03F000
03F000
07E000
07E000
ENDCHAR
STARTCHAR C0254
ENCODING 254
SWIDTH 539 0
DWIDTH 23 0
BBX 19 36 3 -7
BITMAP
F80000
F80000
F80000
F80000
F80000
F80000
F80000
F80000
F80000
F8FC00
FBFF00
FFFF80
FFFFC0
FF0FC0
FE07C0
FC07E0
F803E0
F803E0
F803E0
F803E0
F803E0
F803E0
F807E0
FC07C0
FF0FC0
FFFF80
FFFF80
FBFF00
F8FC00
F80000
F80000
F80000
F80000
F80000
F80000
F80000
ENDCHAR
STARTCHAR C0255
ENCODING 255
SWIDTH 468 0
DWIDTH 20 0
BBX 20 35 0 -7
BITMAP
0E0E00
1F1F00
1F1F00
1F1F00
0E0E00
000000
000000
000000
F801F0
FC03F0
7C03E0
7C03E0
7E07E0
3E07C0
3F07C0
1F0FC0
1F0F80
1F8F80
0F8F80
0FDF00
07DF00
07DF00
07FE00
03FE00
03FE00
03FC00
01FC00
01FC00
00F800
01F800
01F000
03F000
03F000
07E000
07E000
ENDCHAR
ENDFONT
